<svg width="1280" height="720" xmlns="http://www.w3.org/2000/svg" xmlns:xlink="http://www.w3.org/1999/xlink" overflow="hidden"><defs><clipPath id="clip0"><rect x="377" y="304" width="543" height="19"/></clipPath><clipPath id="clip1"><rect x="377" y="304" width="543" height="19"/></clipPath><clipPath id="clip2"><rect x="377" y="304" width="543" height="19"/></clipPath><clipPath id="clip3"><rect x="377" y="304" width="543" height="19"/></clipPath><clipPath id="clip4"><rect x="377" y="304" width="543" height="19"/></clipPath><clipPath id="clip5"><rect x="377" y="304" width="543" height="19"/></clipPath><clipPath id="clip6"><rect x="378" y="327" width="543" height="19"/></clipPath><clipPath id="clip7"><rect x="378" y="327" width="543" height="19"/></clipPath><clipPath id="clip8"><rect x="378" y="327" width="543" height="19"/></clipPath><clipPath id="clip9"><path d="M454.565 217.604 504.492 217.604 504.492 167.64 454.565 167.64 454.565 217.604 454.565 217.604Z"/></clipPath><clipPath id="clip10"><path d="M652.7 218.037 692.154 218.037 692.154 178.553 652.7 178.553 652.7 218.037 652.7 218.037Z"/></clipPath><clipPath id="clip11"><path d="M859.372 176.72 908.054 176.72 908.054 225.56 859.372 225.56 859.372 176.72 859.372 176.72Z" fill-rule="evenodd" clip-rule="evenodd"/></clipPath><clipPath id="clip12"><path d="M859.372 225.56 908.054 225.56 908.054 176.72 859.372 176.72 859.372 225.56 859.372 225.56Z"/></clipPath><clipPath id="clip13"><path d="M721.308 176.512 762.957 176.512 762.957 218.192 721.308 218.192 721.308 176.512 721.308 176.512Z" fill-rule="evenodd" clip-rule="evenodd"/></clipPath><clipPath id="clip14"><path d="M721.308 218.192 762.957 218.192 762.957 176.512 721.308 176.512 721.308 218.192 721.308 218.192Z"/></clipPath><clipPath id="clip15"><rect x="389" y="110" width="482" height="43"/></clipPath><clipPath id="clip16"><rect x="389" y="110" width="482" height="43"/></clipPath><clipPath id="clip17"><rect x="389" y="110" width="482" height="43"/></clipPath><clipPath id="clip18"><rect x="323" y="366" width="688" height="247"/></clipPath></defs><g><rect x="0" y="0" width="1280" height="720" fill="#FFFFFF"/><g clip-path="url(#clip0)"><g clip-path="url(#clip1)"><g clip-path="url(#clip2)"><path d="M19.0168 9.5084C19.0168 14.7597 14.7597 19.0168 9.5084 19.0168 4.25706 19.0168-2.56337e-07 14.7597-2.56337e-07 9.5084-2.56337e-07 4.25706 4.25706-2.56337e-07 9.5084-2.56337e-07 14.7597-2.56337e-07 19.0168 4.25706 19.0168 9.5084Z" fill="#B2B2B2" fill-opacity="0.49" transform="matrix(1.00117 0 0 1 384.273 304)"/><path d="M73.1609 9.5084C73.1609 14.7597 68.9039 19.0168 63.6525 19.0168 58.4012 19.0168 54.1441 14.7597 54.1441 9.5084 54.1441 4.25706 58.4012-2.56337e-07 63.6525-2.56337e-07 68.9039-2.56337e-07 73.1609 4.25706 73.1609 9.5084Z" fill="#B2B2B2" fill-opacity="0.49" transform="matrix(1.00117 0 0 1 384.273 304)"/><path d="M107.381 9.5084C107.381 14.7597 103.124 19.0168 97.8727 19.0168 92.6213 19.0168 88.3643 14.7597 88.3643 9.5084 88.3643 4.25706 92.6213-2.56337e-07 97.8727-2.56337e-07 103.124-2.56337e-07 107.381 4.25706 107.381 9.5084Z" fill="#B2B2B2" fill-opacity="0.49" transform="matrix(1.00117 0 0 1 384.273 304)"/><path d="M125.575 9.5084C125.575 14.7597 121.318 19.0168 116.066 19.0168 110.815 19.0168 106.558 14.7597 106.558 9.5084 106.558 4.25706 110.815-2.56337e-07 116.066-2.56337e-07 121.318-2.56337e-07 125.575 4.25706 125.575 9.5084Z" fill="#B2B2B2" fill-opacity="0.49" transform="matrix(1.00117 0 0 1 384.273 304)"/><path d="M141.114 9.5084C141.114 14.7597 136.857 19.0168 131.606 19.0168 126.354 19.0168 122.097 14.7597 122.097 9.5084 122.097 4.25706 126.354-2.56337e-07 131.606-2.56337e-07 136.857-2.56337e-07 141.114 4.25706 141.114 9.5084Z" fill="#B2B2B2" fill-opacity="0.49" transform="matrix(1.00117 0 0 1 384.273 304)"/><path d="M141.114 9.5084C141.114 14.7597 136.857 19.0168 131.606 19.0168 126.354 19.0168 122.097 14.7597 122.097 9.5084 122.097 4.25706 126.354-2.56337e-07 131.606-2.56337e-07 136.857-2.56337e-07 141.114 4.25706 141.114 9.5084Z" fill="#B2B2B2" fill-opacity="0.49" transform="matrix(1.00117 0 0 1 384.273 304)"/><path d="M268.268 9.5084C268.268 14.7597 264.011 19.0168 258.759 19.0168 253.508 19.0168 249.251 14.7597 249.251 9.5084 249.251 4.25706 253.508-2.56337e-07 258.759-2.56337e-07 264.011-2.56337e-07 268.268 4.25706 268.268 9.5084Z" fill="#B2B2B2" fill-opacity="0.49" transform="matrix(1.00117 0 0 1 384.273 304)"/><path d="M177.401 9.5084C177.401 14.7597 173.143 19.0168 167.892 19.0168 162.641 19.0168 158.384 14.7597 158.384 9.5084 158.384 4.25706 162.641-2.56337e-07 167.892-2.56337e-07 173.143-2.56337e-07 177.401 4.25706 177.401 9.5084Z" fill="#B2B2B2" fill-opacity="0.49" transform="matrix(1.00117 0 0 1 384.273 304)"/><path d="M213.687 9.5084C213.687 14.7597 209.43 19.0168 204.179 19.0168 198.927 19.0168 194.67 14.7597 194.67 9.5084 194.67 4.25706 198.927-2.56337e-07 204.179-2.56337e-07 209.43-2.56337e-07 213.687 4.25706 213.687 9.5084Z" fill="#B2B2B2" fill-opacity="0.49" transform="matrix(1.00117 0 0 1 384.273 304)"/><path d="M231.545 9.5084C231.545 14.7597 227.288 19.0168 222.036 19.0168 216.785 19.0168 212.528 14.7597 212.528 9.5084 212.528 4.25706 216.785-2.56337e-07 222.036-2.56337e-07 227.288-2.56337e-07 231.545 4.25706 231.545 9.5084Z" fill="#B2B2B2" fill-opacity="0.49" transform="matrix(1.00117 0 0 1 384.273 304)"/><path d="M254.005 9.5084C254.005 14.7597 249.748 19.0168 244.497 19.0168 239.246 19.0168 234.988 14.7597 234.988 9.5084 234.988 4.25706 239.246-2.56337e-07 244.497-2.56337e-07 249.748-2.56337e-07 254.005 4.25706 254.005 9.5084Z" fill="#B2B2B2" fill-opacity="0.49" transform="matrix(1.00117 0 0 1 384.273 304)"/><path d="M282.816 9.5084C282.816 14.7597 278.559 19.0168 273.308 19.0168 268.056 19.0168 263.799 14.7597 263.799 9.5084 263.799 4.25706 268.056-2.56337e-07 273.308-2.56337e-07 278.559-2.56337e-07 282.816 4.25706 282.816 9.5084Z" fill="#B2B2B2" fill-opacity="0.49" transform="matrix(1.00117 0 0 1 384.273 304)"/><path d="M301.816 9.5084C301.816 14.7597 297.559 19.0168 292.308 19.0168 287.056 19.0168 282.799 14.7597 282.799 9.5084 282.799 4.25706 287.056-2.56337e-07 292.308-2.56337e-07 297.559-2.56337e-07 301.816 4.25706 301.816 9.5084Z" fill="#B2B2B2" fill-opacity="0.49" transform="matrix(1.00117 0 0 1 384.273 304)"/><path d="M226.37 9.5084C226.37 14.7597 222.113 19.0168 216.862 19.0168 211.611 19.0168 207.354 14.7597 207.354 9.5084 207.354 4.25706 211.611-2.56337e-07 216.862-2.56337e-07 222.113-2.56337e-07 226.37 4.25706 226.37 9.5084Z" fill="#B2B2B2" fill-opacity="0.49" transform="matrix(1.00117 0 0 1 384.273 304)"/><path d="M248.243 9.5084C248.243 14.7597 243.986 19.0168 238.735 19.0168 233.483 19.0168 229.226 14.7597 229.226 9.5084 229.226 4.25706 233.483-2.56337e-07 238.735-2.56337e-07 243.986-2.56337e-07 248.243 4.25706 248.243 9.5084Z" fill="#B2B2B2" fill-opacity="0.49" transform="matrix(1.00117 0 0 1 384.273 304)"/><path d="M199.525 9.5084C199.525 14.7597 195.268 19.0168 190.017 19.0168 184.765 19.0168 180.508 14.7597 180.508 9.5084 180.508 4.25706 184.765-2.56337e-07 190.017-2.56337e-07 195.268-2.56337e-07 199.525 4.25706 199.525 9.5084Z" fill="#B2B2B2" fill-opacity="0.49" transform="matrix(1.00117 0 0 1 384.273 304)"/><path d="M278.196 9.5084C278.196 14.7597 273.939 19.0168 268.688 19.0168 263.437 19.0168 259.179 14.7597 259.179 9.5084 259.179 4.25706 263.437-2.56337e-07 268.688-2.56337e-07 273.939-2.56337e-07 278.196 4.25706 278.196 9.5084Z" fill="#B2B2B2" fill-opacity="0.49" transform="matrix(1.00117 0 0 1 384.273 304)"/><path d="M329.132 9.5084C329.132 14.7597 324.875 19.0168 319.623 19.0168 314.372 19.0168 310.115 14.7597 310.115 9.5084 310.115 4.25706 314.372-2.56337e-07 319.623-2.56337e-07 324.875-2.56337e-07 329.132 4.25706 329.132 9.5084Z" fill="#B2B2B2" fill-opacity="0.49" transform="matrix(1.00117 0 0 1 384.273 304)"/><path d="M289.956 9.5084C289.956 14.7597 285.699 19.0168 280.447 19.0168 275.196 19.0168 270.939 14.7597 270.939 9.5084 270.939 4.25706 275.196-2.56337e-07 280.447-2.56337e-07 285.699-2.56337e-07 289.956 4.25706 289.956 9.5084Z" fill="#B2B2B2" fill-opacity="0.49" transform="matrix(1.00117 0 0 1 384.273 304)"/><path d="M321.202 9.5084C321.202 14.7597 316.945 19.0168 311.694 19.0168 306.443 19.0168 302.186 14.7597 302.186 9.5084 302.186 4.25706 306.443-2.56337e-07 311.694-2.56337e-07 316.945-2.56337e-07 321.202 4.25706 321.202 9.5084Z" fill="#B2B2B2" fill-opacity="0.49" transform="matrix(1.00117 0 0 1 384.273 304)"/><path d="M388.45 9.5084C388.45 14.7597 384.193 19.0168 378.942 19.0168 373.69 19.0168 369.433 14.7597 369.433 9.5084 369.433 4.25706 373.69-2.56337e-07 378.942-2.56337e-07 384.193-2.56337e-07 388.45 4.25706 388.45 9.5084Z" fill="#B2B2B2" fill-opacity="0.49" transform="matrix(1.00117 0 0 1 384.273 304)"/><path d="M442.023 9.5084C442.023 14.7597 437.766 19.0168 432.515 19.0168 427.263 19.0168 423.006 14.7597 423.006 9.5084 423.006 4.25706 427.263-2.56337e-07 432.515-2.56337e-07 437.766-2.56337e-07 442.023 4.25706 442.023 9.5084Z" fill="#B2B2B2" fill-opacity="0.49" transform="matrix(1.00117 0 0 1 384.273 304)"/><path d="M478.309 9.5084C478.309 14.7597 474.052 19.0168 468.801 19.0168 463.55 19.0168 459.293 14.7597 459.293 9.5084 459.293 4.25706 463.55-2.56337e-07 468.801-2.56337e-07 474.052-2.56337e-07 478.309 4.25706 478.309 9.5084Z" fill="#B2B2B2" fill-opacity="0.49" transform="matrix(1.00117 0 0 1 384.273 304)"/><path d="M506.532 9.5084C506.532 14.7597 502.275 19.0168 497.024 19.0168 491.772 19.0168 487.515 14.7597 487.515 9.5084 487.515 4.25706 491.772-2.56337e-07 497.024-2.56337e-07 502.275-2.56337e-07 506.532 4.25706 506.532 9.5084Z" fill="#B2B2B2" fill-opacity="0.49" transform="matrix(1.00117 0 0 1 384.273 304)"/><path d="M459.881 9.5084C459.881 14.7597 455.624 19.0168 450.372 19.0168 445.121 19.0168 440.864 14.7597 440.864 9.5084 440.864 4.25706 445.121-2.56337e-07 450.372-2.56337e-07 455.624-2.56337e-07 459.881 4.25706 459.881 9.5084Z" fill="#B2B2B2" fill-opacity="0.49" transform="matrix(1.00117 0 0 1 384.273 304)"/><path d="M423.594 9.5084C423.594 14.7597 419.337 19.0168 414.086 19.0168 408.834 19.0168 404.577 14.7597 404.577 9.5084 404.577 4.25706 408.834-2.56337e-07 414.086-2.56337e-07 419.337-2.56337e-07 423.594 4.25706 423.594 9.5084Z" fill="#B2B2B2" fill-opacity="0.49" transform="matrix(1.00117 0 0 1 384.273 304)"/><path d="M527.834 9.5084C527.834 14.7597 523.577 19.0168 518.325 19.0168 513.074 19.0168 508.817 14.7597 508.817 9.5084 508.817 4.25706 513.074-2.56337e-07 518.325-2.56337e-07 523.577-2.56337e-07 527.834 4.25706 527.834 9.5084Z" fill="#B2B2B2" fill-opacity="0.49" transform="matrix(1.00117 0 0 1 384.273 304)"/><path d="M352.164 9.5084C352.164 14.7597 347.907 19.0168 342.655 19.0168 337.404 19.0168 333.147 14.7597 333.147 9.5084 333.147 4.25706 337.404-2.56337e-07 342.655-2.56337e-07 347.907-2.56337e-07 352.164 4.25706 352.164 9.5084Z" fill="#B2B2B2" fill-opacity="0.49" transform="matrix(1.00117 0 0 1 384.273 304)"/><path d="M365.989 9.5084C365.989 14.7597 361.732 19.0168 356.481 19.0168 351.23 19.0168 346.973 14.7597 346.973 9.5084 346.973 4.25706 351.23-2.56337e-07 356.481-2.56337e-07 361.732-2.56337e-07 365.989 4.25706 365.989 9.5084Z" fill="#B2B2B2" fill-opacity="0.49" transform="matrix(1.00117 0 0 1 384.273 304)"/><path d="M381.546 9.5084C381.546 14.7597 377.288 19.0168 372.037 19.0168 366.786 19.0168 362.529 14.7597 362.529 9.5084 362.529 4.25706 366.786-2.56337e-07 372.037-2.56337e-07 377.288-2.56337e-07 381.546 4.25706 381.546 9.5084Z" fill="#B2B2B2" fill-opacity="0.49" transform="matrix(1.00117 0 0 1 384.273 304)"/><path d="M431.658 9.5084C431.658 14.7597 427.401 19.0168 422.149 19.0168 416.898 19.0168 412.641 14.7597 412.641 9.5084 412.641 4.25706 416.898-2.56337e-07 422.149-2.56337e-07 427.401-2.56337e-07 431.658 4.25706 431.658 9.5084Z" fill="#B2B2B2" fill-opacity="0.49" transform="matrix(1.00117 0 0 1 384.273 304)"/><path d="M339.648 9.5084C339.648 14.7597 335.391 19.0168 330.14 19.0168 324.888 19.0168 320.631 14.7597 320.631 9.5084 320.631 4.25706 324.888-2.56337e-07 330.14-2.56337e-07 335.391-2.56337e-07 339.648 4.25706 339.648 9.5084Z" fill="#B2B2B2" fill-opacity="0.49" transform="matrix(1.00117 0 0 1 384.273 304)"/></g></g></g><g clip-path="url(#clip3)"><g clip-path="url(#clip4)"><g clip-path="url(#clip5)"><path d="M19.0168 9.5084C19.0168 14.7597 14.7597 19.0168 9.5084 19.0168 4.25706 19.0168-2.56337e-07 14.7597-2.56337e-07 9.5084-2.56337e-07 4.25706 4.25706-2.56337e-07 9.5084-2.56337e-07 14.7597-2.56337e-07 19.0168 4.25706 19.0168 9.5084Z" fill="#39A3DC" fill-opacity="0.56" transform="matrix(1.00117 0 0 1 384.273 304)"/><path d="M73.1609 9.5084C73.1609 14.7597 68.9039 19.0168 63.6525 19.0168 58.4012 19.0168 54.1441 14.7597 54.1441 9.5084 54.1441 4.25706 58.4012-2.56337e-07 63.6525-2.56337e-07 68.9039-2.56337e-07 73.1609 4.25706 73.1609 9.5084Z" fill="#39A3DC" fill-opacity="0.56" transform="matrix(1.00117 0 0 1 384.273 304)"/><path d="M107.381 9.5084C107.381 14.7597 103.124 19.0168 97.8727 19.0168 92.6213 19.0168 88.3643 14.7597 88.3643 9.5084 88.3643 4.25706 92.6213-2.56337e-07 97.8727-2.56337e-07 103.124-2.56337e-07 107.381 4.25706 107.381 9.5084Z" fill="#39A3DC" fill-opacity="0.56" transform="matrix(1.00117 0 0 1 384.273 304)"/><path d="M125.575 9.5084C125.575 14.7597 121.318 19.0168 116.066 19.0168 110.815 19.0168 106.558 14.7597 106.558 9.5084 106.558 4.25706 110.815-2.56337e-07 116.066-2.56337e-07 121.318-2.56337e-07 125.575 4.25706 125.575 9.5084Z" fill="#39A3DC" fill-opacity="0.56" transform="matrix(1.00117 0 0 1 384.273 304)"/><path d="M141.114 9.5084C141.114 14.7597 136.857 19.0168 131.606 19.0168 126.354 19.0168 122.097 14.7597 122.097 9.5084 122.097 4.25706 126.354-2.56337e-07 131.606-2.56337e-07 136.857-2.56337e-07 141.114 4.25706 141.114 9.5084Z" fill="#39A3DC" fill-opacity="0.56" transform="matrix(1.00117 0 0 1 384.273 304)"/><path d="M141.114 9.5084C141.114 14.7597 136.857 19.0168 131.606 19.0168 126.354 19.0168 122.097 14.7597 122.097 9.5084 122.097 4.25706 126.354-2.56337e-07 131.606-2.56337e-07 136.857-2.56337e-07 141.114 4.25706 141.114 9.5084Z" fill="#EB5A2F" fill-opacity="0.56" transform="matrix(1.00117 0 0 1 384.273 304)"/><path d="M268.268 9.5084C268.268 14.7597 264.011 19.0168 258.759 19.0168 253.508 19.0168 249.251 14.7597 249.251 9.5084 249.251 4.25706 253.508-2.56337e-07 258.759-2.56337e-07 264.011-2.56337e-07 268.268 4.25706 268.268 9.5084Z" fill="#EB5A2F" fill-opacity="0.56" transform="matrix(1.00117 0 0 1 384.273 304)"/><path d="M177.401 9.5084C177.401 14.7597 173.143 19.0168 167.892 19.0168 162.641 19.0168 158.384 14.7597 158.384 9.5084 158.384 4.25706 162.641-2.56337e-07 167.892-2.56337e-07 173.143-2.56337e-07 177.401 4.25706 177.401 9.5084Z" fill="#EB5A2F" fill-opacity="0.56" transform="matrix(1.00117 0 0 1 384.273 304)"/><path d="M213.687 9.5084C213.687 14.7597 209.43 19.0168 204.179 19.0168 198.927 19.0168 194.67 14.7597 194.67 9.5084 194.67 4.25706 198.927-2.56337e-07 204.179-2.56337e-07 209.43-2.56337e-07 213.687 4.25706 213.687 9.5084Z" fill="#EB5A2F" fill-opacity="0.56" transform="matrix(1.00117 0 0 1 384.273 304)"/><path d="M231.545 9.5084C231.545 14.7597 227.288 19.0168 222.036 19.0168 216.785 19.0168 212.528 14.7597 212.528 9.5084 212.528 4.25706 216.785-2.56337e-07 222.036-2.56337e-07 227.288-2.56337e-07 231.545 4.25706 231.545 9.5084Z" fill="#EB5A2F" fill-opacity="0.56" transform="matrix(1.00117 0 0 1 384.273 304)"/><path d="M254.005 9.5084C254.005 14.7597 249.748 19.0168 244.497 19.0168 239.246 19.0168 234.988 14.7597 234.988 9.5084 234.988 4.25706 239.246-2.56337e-07 244.497-2.56337e-07 249.748-2.56337e-07 254.005 4.25706 254.005 9.5084Z" fill="#EB5A2F" fill-opacity="0.56" transform="matrix(1.00117 0 0 1 384.273 304)"/><path d="M282.816 9.5084C282.816 14.7597 278.559 19.0168 273.308 19.0168 268.056 19.0168 263.799 14.7597 263.799 9.5084 263.799 4.25706 268.056-2.56337e-07 273.308-2.56337e-07 278.559-2.56337e-07 282.816 4.25706 282.816 9.5084Z" fill="#D0C4E2" fill-opacity="0.56" transform="matrix(1.00117 0 0 1 384.273 304)"/><path d="M301.816 9.5084C301.816 14.7597 297.559 19.0168 292.308 19.0168 287.056 19.0168 282.799 14.7597 282.799 9.5084 282.799 4.25706 287.056-2.56337e-07 292.308-2.56337e-07 297.559-2.56337e-07 301.816 4.25706 301.816 9.5084Z" fill="#D0C4E2" fill-opacity="0.56" transform="matrix(1.00117 0 0 1 384.273 304)"/><path d="M226.37 9.5084C226.37 14.7597 222.113 19.0168 216.862 19.0168 211.611 19.0168 207.354 14.7597 207.354 9.5084 207.354 4.25706 211.611-2.56337e-07 216.862-2.56337e-07 222.113-2.56337e-07 226.37 4.25706 226.37 9.5084Z" fill="#A66CAA" fill-opacity="0.56" transform="matrix(1.00117 0 0 1 384.273 304)"/><path d="M248.243 9.5084C248.243 14.7597 243.986 19.0168 238.735 19.0168 233.483 19.0168 229.226 14.7597 229.226 9.5084 229.226 4.25706 233.483-2.56337e-07 238.735-2.56337e-07 243.986-2.56337e-07 248.243 4.25706 248.243 9.5084Z" fill="#A66CAA" fill-opacity="0.56" transform="matrix(1.00117 0 0 1 384.273 304)"/><path d="M199.525 9.5084C199.525 14.7597 195.268 19.0168 190.017 19.0168 184.765 19.0168 180.508 14.7597 180.508 9.5084 180.508 4.25706 184.765-2.56337e-07 190.017-2.56337e-07 195.268-2.56337e-07 199.525 4.25706 199.525 9.5084Z" fill="#39A3DC" fill-opacity="0.56" transform="matrix(1.00117 0 0 1 384.273 304)"/><path d="M278.196 9.5084C278.196 14.7597 273.939 19.0168 268.688 19.0168 263.437 19.0168 259.179 14.7597 259.179 9.5084 259.179 4.25706 263.437-2.56337e-07 268.688-2.56337e-07 273.939-2.56337e-07 278.196 4.25706 278.196 9.5084Z" fill="#A66CAA" fill-opacity="0.56" transform="matrix(1.00117 0 0 1 384.273 304)"/><path d="M329.132 9.5084C329.132 14.7597 324.875 19.0168 319.623 19.0168 314.372 19.0168 310.115 14.7597 310.115 9.5084 310.115 4.25706 314.372-2.56337e-07 319.623-2.56337e-07 324.875-2.56337e-07 329.132 4.25706 329.132 9.5084Z" fill="#D0C4E2" fill-opacity="0.56" transform="matrix(1.00117 0 0 1 384.273 304)"/><path d="M289.956 9.5084C289.956 14.7597 285.699 19.0168 280.447 19.0168 275.196 19.0168 270.939 14.7597 270.939 9.5084 270.939 4.25706 275.196-2.56337e-07 280.447-2.56337e-07 285.699-2.56337e-07 289.956 4.25706 289.956 9.5084Z" fill="#EB5A2F" fill-opacity="0.56" transform="matrix(1.00117 0 0 1 384.273 304)"/><path d="M321.202 9.5084C321.202 14.7597 316.945 19.0168 311.694 19.0168 306.443 19.0168 302.186 14.7597 302.186 9.5084 302.186 4.25706 306.443-2.56337e-07 311.694-2.56337e-07 316.945-2.56337e-07 321.202 4.25706 321.202 9.5084Z" fill="#D0C4E2" fill-opacity="0.56" transform="matrix(1.00117 0 0 1 384.273 304)"/><path d="M388.45 9.5084C388.45 14.7597 384.193 19.0168 378.942 19.0168 373.69 19.0168 369.433 14.7597 369.433 9.5084 369.433 4.25706 373.69-2.56337e-07 378.942-2.56337e-07 384.193-2.56337e-07 388.45 4.25706 388.45 9.5084Z" fill="#87D1F5" fill-opacity="0.56" transform="matrix(1.00117 0 0 1 384.273 304)"/><path d="M442.023 9.5084C442.023 14.7597 437.766 19.0168 432.515 19.0168 427.263 19.0168 423.006 14.7597 423.006 9.5084 423.006 4.25706 427.263-2.56337e-07 432.515-2.56337e-07 437.766-2.56337e-07 442.023 4.25706 442.023 9.5084Z" fill="#87D1F5" fill-opacity="0.56" transform="matrix(1.00117 0 0 1 384.273 304)"/><path d="M478.309 9.5084C478.309 14.7597 474.052 19.0168 468.801 19.0168 463.55 19.0168 459.293 14.7597 459.293 9.5084 459.293 4.25706 463.55-2.56337e-07 468.801-2.56337e-07 474.052-2.56337e-07 478.309 4.25706 478.309 9.5084Z" fill="#87D1F5" fill-opacity="0.56" transform="matrix(1.00117 0 0 1 384.273 304)"/><path d="M506.532 9.5084C506.532 14.7597 502.275 19.0168 497.024 19.0168 491.772 19.0168 487.515 14.7597 487.515 9.5084 487.515 4.25706 491.772-2.56337e-07 497.024-2.56337e-07 502.275-2.56337e-07 506.532 4.25706 506.532 9.5084Z" fill="#87D1F5" fill-opacity="0.56" transform="matrix(1.00117 0 0 1 384.273 304)"/><path d="M459.881 9.5084C459.881 14.7597 455.624 19.0168 450.372 19.0168 445.121 19.0168 440.864 14.7597 440.864 9.5084 440.864 4.25706 445.121-2.56337e-07 450.372-2.56337e-07 455.624-2.56337e-07 459.881 4.25706 459.881 9.5084Z" fill="#87D1F5" fill-opacity="0.56" transform="matrix(1.00117 0 0 1 384.273 304)"/><path d="M423.594 9.5084C423.594 14.7597 419.337 19.0168 414.086 19.0168 408.834 19.0168 404.577 14.7597 404.577 9.5084 404.577 4.25706 408.834-2.56337e-07 414.086-2.56337e-07 419.337-2.56337e-07 423.594 4.25706 423.594 9.5084Z" fill="#87D1F5" fill-opacity="0.56" transform="matrix(1.00117 0 0 1 384.273 304)"/><path d="M527.834 9.5084C527.834 14.7597 523.577 19.0168 518.325 19.0168 513.074 19.0168 508.817 14.7597 508.817 9.5084 508.817 4.25706 513.074-2.56337e-07 518.325-2.56337e-07 523.577-2.56337e-07 527.834 4.25706 527.834 9.5084Z" fill="#87D1F5" fill-opacity="0.56" transform="matrix(1.00117 0 0 1 384.273 304)"/><path d="M352.164 9.5084C352.164 14.7597 347.907 19.0168 342.655 19.0168 337.404 19.0168 333.147 14.7597 333.147 9.5084 333.147 4.25706 337.404-2.56337e-07 342.655-2.56337e-07 347.907-2.56337e-07 352.164 4.25706 352.164 9.5084Z" fill="#D0C4E2" fill-opacity="0.56" transform="matrix(1.00117 0 0 1 384.273 304)"/><path d="M365.989 9.5084C365.989 14.7597 361.732 19.0168 356.481 19.0168 351.23 19.0168 346.973 14.7597 346.973 9.5084 346.973 4.25706 351.23-2.56337e-07 356.481-2.56337e-07 361.732-2.56337e-07 365.989 4.25706 365.989 9.5084Z" fill="#D0C4E2" fill-opacity="0.56" transform="matrix(1.00117 0 0 1 384.273 304)"/><path d="M381.546 9.5084C381.546 14.7597 377.288 19.0168 372.037 19.0168 366.786 19.0168 362.529 14.7597 362.529 9.5084 362.529 4.25706 366.786-2.56337e-07 372.037-2.56337e-07 377.288-2.56337e-07 381.546 4.25706 381.546 9.5084Z" fill="#D0C4E2" fill-opacity="0.56" transform="matrix(1.00117 0 0 1 384.273 304)"/><path d="M431.658 9.5084C431.658 14.7597 427.401 19.0168 422.149 19.0168 416.898 19.0168 412.641 14.7597 412.641 9.5084 412.641 4.25706 416.898-2.56337e-07 422.149-2.56337e-07 427.401-2.56337e-07 431.658 4.25706 431.658 9.5084Z" fill="#D0C4E2" fill-opacity="0.56" transform="matrix(1.00117 0 0 1 384.273 304)"/><path d="M339.648 9.5084C339.648 14.7597 335.391 19.0168 330.14 19.0168 324.888 19.0168 320.631 14.7597 320.631 9.5084 320.631 4.25706 324.888-2.56337e-07 330.14-2.56337e-07 335.391-2.56337e-07 339.648 4.25706 339.648 9.5084Z" fill="#A66CAA" fill-opacity="0.56" transform="matrix(1.00117 0 0 1 384.273 304)"/></g></g></g><g clip-path="url(#clip6)"><g clip-path="url(#clip7)"><g clip-path="url(#clip8)"><path d="M19.0168 9.5084C19.0168 14.7597 14.7597 19.0168 9.5084 19.0168 4.25706 19.0168-2.56337e-07 14.7597-2.56337e-07 9.5084-2.56337e-07 4.25706 4.25706-2.56337e-07 9.5084-2.56337e-07 14.7597-2.56337e-07 19.0168 4.25706 19.0168 9.5084Z" fill="#6EB52F" fill-opacity="0.56" transform="matrix(1.00117 0 0 1 385.273 327)"/><path d="M73.1609 9.5084C73.1609 14.7597 68.9039 19.0168 63.6525 19.0168 58.4012 19.0168 54.1441 14.7597 54.1441 9.5084 54.1441 4.25706 58.4012-2.56337e-07 63.6525-2.56337e-07 68.9039-2.56337e-07 73.1609 4.25706 73.1609 9.5084Z" fill="#D6B52B" fill-opacity="0.56" transform="matrix(1.00117 0 0 1 385.273 327)"/><path d="M107.381 9.5084C107.381 14.7597 103.124 19.0168 97.8727 19.0168 92.6213 19.0168 88.3643 14.7597 88.3643 9.5084 88.3643 4.25706 92.6213-2.56337e-07 97.8727-2.56337e-07 103.124-2.56337e-07 107.381 4.25706 107.381 9.5084Z" fill="#6C2E2C" fill-opacity="0.56" transform="matrix(1.00117 0 0 1 385.273 327)"/><path d="M125.575 9.5084C125.575 14.7597 121.318 19.0168 116.066 19.0168 110.815 19.0168 106.558 14.7597 106.558 9.5084 106.558 4.25706 110.815-2.56337e-07 116.066-2.56337e-07 121.318-2.56337e-07 125.575 4.25706 125.575 9.5084Z" fill="#6EB52F" fill-opacity="0.56" transform="matrix(1.00117 0 0 1 385.273 327)"/><path d="M141.114 9.5084C141.114 14.7597 136.857 19.0168 131.606 19.0168 126.354 19.0168 122.097 14.7597 122.097 9.5084 122.097 4.25706 126.354-2.56337e-07 131.606-2.56337e-07 136.857-2.56337e-07 141.114 4.25706 141.114 9.5084Z" fill="#39A3DC" fill-opacity="0.56" transform="matrix(1.00117 0 0 1 385.273 327)"/><path d="M141.114 9.5084C141.114 14.7597 136.857 19.0168 131.606 19.0168 126.354 19.0168 122.097 14.7597 122.097 9.5084 122.097 4.25706 126.354-2.56337e-07 131.606-2.56337e-07 136.857-2.56337e-07 141.114 4.25706 141.114 9.5084Z" fill="#D6B52B" fill-opacity="0.56" transform="matrix(1.00117 0 0 1 385.273 327)"/><path d="M268.268 9.5084C268.268 14.7597 264.011 19.0168 258.759 19.0168 253.508 19.0168 249.251 14.7597 249.251 9.5084 249.251 4.25706 253.508-2.56337e-07 258.759-2.56337e-07 264.011-2.56337e-07 268.268 4.25706 268.268 9.5084Z" fill="#E52625" fill-opacity="0.56" transform="matrix(1.00117 0 0 1 385.273 327)"/><path d="M177.401 9.5084C177.401 14.7597 173.143 19.0168 167.892 19.0168 162.641 19.0168 158.384 14.7597 158.384 9.5084 158.384 4.25706 162.641-2.56337e-07 167.892-2.56337e-07 173.143-2.56337e-07 177.401 4.25706 177.401 9.5084Z" fill="#6EB52F" fill-opacity="0.56" transform="matrix(1.00117 0 0 1 385.273 327)"/><path d="M213.687 9.5084C213.687 14.7597 209.43 19.0168 204.179 19.0168 198.927 19.0168 194.67 14.7597 194.67 9.5084 194.67 4.25706 198.927-2.56337e-07 204.179-2.56337e-07 209.43-2.56337e-07 213.687 4.25706 213.687 9.5084Z" fill="#6C2E2C" fill-opacity="0.56" transform="matrix(1.00117 0 0 1 385.273 327)"/><path d="M231.545 9.5084C231.545 14.7597 227.288 19.0168 222.036 19.0168 216.785 19.0168 212.528 14.7597 212.528 9.5084 212.528 4.25706 216.785-2.56337e-07 222.036-2.56337e-07 227.288-2.56337e-07 231.545 4.25706 231.545 9.5084Z" fill="#6EB52F" fill-opacity="0.56" transform="matrix(1.00117 0 0 1 385.273 327)"/><path d="M254.005 9.5084C254.005 14.7597 249.748 19.0168 244.497 19.0168 239.246 19.0168 234.988 14.7597 234.988 9.5084 234.988 4.25706 239.246-2.56337e-07 244.497-2.56337e-07 249.748-2.56337e-07 254.005 4.25706 254.005 9.5084Z" fill="#0856A3" fill-opacity="0.56" transform="matrix(1.00117 0 0 1 385.273 327)"/><path d="M282.816 9.5084C282.816 14.7597 278.559 19.0168 273.308 19.0168 268.056 19.0168 263.799 14.7597 263.799 9.5084 263.799 4.25706 268.056-2.56337e-07 273.308-2.56337e-07 278.559-2.56337e-07 282.816 4.25706 282.816 9.5084Z" fill="#D0C4E2" fill-opacity="0.56" transform="matrix(1.00117 0 0 1 385.273 327)"/><path d="M301.816 9.5084C301.816 14.7597 297.559 19.0168 292.308 19.0168 287.056 19.0168 282.799 14.7597 282.799 9.5084 282.799 4.25706 287.056-2.56337e-07 292.308-2.56337e-07 297.559-2.56337e-07 301.816 4.25706 301.816 9.5084Z" fill="#6EB52F" fill-opacity="0.56" transform="matrix(1.00117 0 0 1 385.273 327)"/><path d="M226.37 9.5084C226.37 14.7597 222.113 19.0168 216.862 19.0168 211.611 19.0168 207.354 14.7597 207.354 9.5084 207.354 4.25706 211.611-2.56337e-07 216.862-2.56337e-07 222.113-2.56337e-07 226.37 4.25706 226.37 9.5084Z" fill="#D6B52B" fill-opacity="0.56" transform="matrix(1.00117 0 0 1 385.273 327)"/><path d="M248.243 9.5084C248.243 14.7597 243.986 19.0168 238.735 19.0168 233.483 19.0168 229.226 14.7597 229.226 9.5084 229.226 4.25706 233.483-2.56337e-07 238.735-2.56337e-07 243.986-2.56337e-07 248.243 4.25706 248.243 9.5084Z" fill="#6C2E2C" fill-opacity="0.56" transform="matrix(1.00117 0 0 1 385.273 327)"/><path d="M199.525 9.5084C199.525 14.7597 195.268 19.0168 190.017 19.0168 184.765 19.0168 180.508 14.7597 180.508 9.5084 180.508 4.25706 184.765-2.56337e-07 190.017-2.56337e-07 195.268-2.56337e-07 199.525 4.25706 199.525 9.5084Z" fill="#D6B52B" fill-opacity="0.56" transform="matrix(1.00117 0 0 1 385.273 327)"/><path d="M278.196 9.5084C278.196 14.7597 273.939 19.0168 268.688 19.0168 263.437 19.0168 259.179 14.7597 259.179 9.5084 259.179 4.25706 263.437-2.56337e-07 268.688-2.56337e-07 273.939-2.56337e-07 278.196 4.25706 278.196 9.5084Z" fill="#6C2E2C" fill-opacity="0.56" transform="matrix(1.00117 0 0 1 385.273 327)"/><path d="M329.132 9.5084C329.132 14.7597 324.875 19.0168 319.623 19.0168 314.372 19.0168 310.115 14.7597 310.115 9.5084 310.115 4.25706 314.372-2.56337e-07 319.623-2.56337e-07 324.875-2.56337e-07 329.132 4.25706 329.132 9.5084Z" fill="#E52625" fill-opacity="0.56" transform="matrix(1.00117 0 0 1 385.273 327)"/><path d="M289.956 9.5084C289.956 14.7597 285.699 19.0168 280.447 19.0168 275.196 19.0168 270.939 14.7597 270.939 9.5084 270.939 4.25706 275.196-2.56337e-07 280.447-2.56337e-07 285.699-2.56337e-07 289.956 4.25706 289.956 9.5084Z" fill="#0856A3" fill-opacity="0.56" transform="matrix(1.00117 0 0 1 385.273 327)"/><path d="M321.202 9.5084C321.202 14.7597 316.945 19.0168 311.694 19.0168 306.443 19.0168 302.186 14.7597 302.186 9.5084 302.186 4.25706 306.443-2.56337e-07 311.694-2.56337e-07 316.945-2.56337e-07 321.202 4.25706 321.202 9.5084Z" fill="#D6B52B" fill-opacity="0.56" transform="matrix(1.00117 0 0 1 385.273 327)"/><path d="M388.45 9.5084C388.45 14.7597 384.193 19.0168 378.942 19.0168 373.69 19.0168 369.433 14.7597 369.433 9.5084 369.433 4.25706 373.69-2.56337e-07 378.942-2.56337e-07 384.193-2.56337e-07 388.45 4.25706 388.45 9.5084Z" fill="#E52625" fill-opacity="0.56" transform="matrix(1.00117 0 0 1 385.273 327)"/><path d="M442.023 9.5084C442.023 14.7597 437.766 19.0168 432.515 19.0168 427.263 19.0168 423.006 14.7597 423.006 9.5084 423.006 4.25706 427.263-2.56337e-07 432.515-2.56337e-07 437.766-2.56337e-07 442.023 4.25706 442.023 9.5084Z" fill="#0856A3" fill-opacity="0.56" transform="matrix(1.00117 0 0 1 385.273 327)"/><path d="M478.309 9.5084C478.309 14.7597 474.052 19.0168 468.801 19.0168 463.55 19.0168 459.293 14.7597 459.293 9.5084 459.293 4.25706 463.55-2.56337e-07 468.801-2.56337e-07 474.052-2.56337e-07 478.309 4.25706 478.309 9.5084Z" fill="#0856A3" fill-opacity="0.56" transform="matrix(1.00117 0 0 1 385.273 327)"/><path d="M506.532 9.5084C506.532 14.7597 502.275 19.0168 497.024 19.0168 491.772 19.0168 487.515 14.7597 487.515 9.5084 487.515 4.25706 491.772-2.56337e-07 497.024-2.56337e-07 502.275-2.56337e-07 506.532 4.25706 506.532 9.5084Z" fill="#E52625" fill-opacity="0.56" transform="matrix(1.00117 0 0 1 385.273 327)"/><path d="M459.881 9.5084C459.881 14.7597 455.624 19.0168 450.372 19.0168 445.121 19.0168 440.864 14.7597 440.864 9.5084 440.864 4.25706 445.121-2.56337e-07 450.372-2.56337e-07 455.624-2.56337e-07 459.881 4.25706 459.881 9.5084Z" fill="#6C2E2C" fill-opacity="0.56" transform="matrix(1.00117 0 0 1 385.273 327)"/><path d="M423.594 9.5084C423.594 14.7597 419.337 19.0168 414.086 19.0168 408.834 19.0168 404.577 14.7597 404.577 9.5084 404.577 4.25706 408.834-2.56337e-07 414.086-2.56337e-07 419.337-2.56337e-07 423.594 4.25706 423.594 9.5084Z" fill="#E52625" fill-opacity="0.56" transform="matrix(1.00117 0 0 1 385.273 327)"/><path d="M527.834 9.5084C527.834 14.7597 523.577 19.0168 518.325 19.0168 513.074 19.0168 508.817 14.7597 508.817 9.5084 508.817 4.25706 513.074-2.56337e-07 518.325-2.56337e-07 523.577-2.56337e-07 527.834 4.25706 527.834 9.5084Z" fill="#0856A3" fill-opacity="0.56" transform="matrix(1.00117 0 0 1 385.273 327)"/><path d="M352.164 9.5084C352.164 14.7597 347.907 19.0168 342.655 19.0168 337.404 19.0168 333.147 14.7597 333.147 9.5084 333.147 4.25706 337.404-2.56337e-07 342.655-2.56337e-07 347.907-2.56337e-07 352.164 4.25706 352.164 9.5084Z" fill="#E52625" fill-opacity="0.56" transform="matrix(1.00117 0 0 1 385.273 327)"/><path d="M365.989 9.5084C365.989 14.7597 361.732 19.0168 356.481 19.0168 351.23 19.0168 346.973 14.7597 346.973 9.5084 346.973 4.25706 351.23-2.56337e-07 356.481-2.56337e-07 361.732-2.56337e-07 365.989 4.25706 365.989 9.5084Z" fill="#D6B52B" fill-opacity="0.56" transform="matrix(1.00117 0 0 1 385.273 327)"/><path d="M381.546 9.5084C381.546 14.7597 377.288 19.0168 372.037 19.0168 366.786 19.0168 362.529 14.7597 362.529 9.5084 362.529 4.25706 366.786-2.56337e-07 372.037-2.56337e-07 377.288-2.56337e-07 381.546 4.25706 381.546 9.5084Z" fill="#0856A3" fill-opacity="0.56" transform="matrix(1.00117 0 0 1 385.273 327)"/><path d="M431.658 9.5084C431.658 14.7597 427.401 19.0168 422.149 19.0168 416.898 19.0168 412.641 14.7597 412.641 9.5084 412.641 4.25706 416.898-2.56337e-07 422.149-2.56337e-07 427.401-2.56337e-07 431.658 4.25706 431.658 9.5084Z" fill="#6C2E2C" fill-opacity="0.56" transform="matrix(1.00117 0 0 1 385.273 327)"/><path d="M339.648 9.5084C339.648 14.7597 335.391 19.0168 330.14 19.0168 324.888 19.0168 320.631 14.7597 320.631 9.5084 320.631 4.25706 324.888-2.56337e-07 330.14-2.56337e-07 335.391-2.56337e-07 339.648 4.25706 339.648 9.5084Z" fill="#E52625" fill-opacity="0.56" transform="matrix(1.00117 0 0 1 385.273 327)"/></g></g></g><g><g><g><path d="M0 106.334 664.983 106.334" stroke="#010101" stroke-width="1.52079" stroke-linejoin="round" fill="none" transform="matrix(1 0 0 1.00075 338 46.2138)"/><path d="M247.025 566.667C322.736 564.939 292.821 572.526 365.162 557.802 408.142 545.895 439.474 523.636 474.314 504.66 524.431 472.776 560.048 480.812 608.644 508.203 710.762 583.811 766.962 564.334 907.117 566.667" stroke="#010101" stroke-width="1.52079" stroke-linejoin="round" fill="none" transform="matrix(1 0 0 1.00075 95.866 -414.603)"/><path d="M293.201 106.334 293.201 104.606" stroke="#010101" stroke-width="1.52079" stroke-linejoin="round" fill="none" transform="matrix(1 0 0 1.00075 338 46.2138)"/><path d="M293.201 101.046 293.201 3.50819" stroke="#010101" stroke-width="1.52079" stroke-linejoin="round" stroke-dasharray="3.54275 3.54275" fill="none" transform="matrix(1 0 0 1.00075 338 46.2138)"/><path d="M293.201 1.72817 293.201 0" stroke="#010101" stroke-width="1.52079" stroke-linejoin="round" fill="none" transform="matrix(1 0 0 1.00075 338 46.2138)"/><path d="M167.201 241.391 167.201 239.663" stroke="#39A3DC" stroke-width="1.52079" stroke-linejoin="round" fill="none" transform="matrix(1 0 0 1.00075 338 46.2138)"/><path d="M167.201 236.293 167.201 123.599" stroke="#39A3DC" stroke-width="1.52079" stroke-linejoin="round" stroke-dasharray="3.36993 3.36993" fill="none" transform="matrix(1 0 0 1.00075 338 46.2138)"/><path d="M167.201 121.922 167.201 120.194" stroke="#39A3DC" stroke-width="1.52079" stroke-linejoin="round" fill="none" transform="matrix(1 0 0 1.00075 338 46.2138)"/><path d="M172.8 124.446 167.201 122.061 161.601 124.446 167.201 111.173 172.8 124.446Z" fill="#39A3DC" transform="matrix(1 0 0 1.00075 338 46.2138)"/><path d="M307.597 241.391 307.597 239.663" stroke="#A66CAA" stroke-width="1.52079" stroke-linejoin="round" fill="none" transform="matrix(1 0 0 1.00075 338 46.2138)"/><path d="M307.597 236.293 307.597 123.599" stroke="#A66CAA" stroke-width="1.52079" stroke-linejoin="round" stroke-dasharray="3.36993 3.36993" fill="none" transform="matrix(1 0 0 1.00075 338 46.2138)"/><path d="M307.597 121.922 307.597 120.194" stroke="#A66CAA" stroke-width="1.52079" stroke-linejoin="round" fill="none" transform="matrix(1 0 0 1.00075 338 46.2138)"/><path d="M313.196 124.446 307.597 122.061 301.998 124.446 307.597 111.173 313.196 124.446Z" fill="#A66CAA" transform="matrix(1 0 0 1.00075 338 46.2138)"/><path d="M262.008 241.391 262.008 239.663" stroke="#EB5A2F" stroke-width="1.52079" stroke-linejoin="round" fill="none" transform="matrix(1 0 0 1.00075 338 46.2138)"/><path d="M262.008 236.293 262.008 123.599" stroke="#EB5A2F" stroke-width="1.52079" stroke-linejoin="round" stroke-dasharray="3.36993 3.36993" fill="none" transform="matrix(1 0 0 1.00075 338 46.2138)"/><path d="M262.008 121.922 262.008 120.194" stroke="#EB5A2F" stroke-width="1.52079" stroke-linejoin="round" fill="none" transform="matrix(1 0 0 1.00075 338 46.2138)"/><path d="M267.607 124.446 262.008 122.061 256.409 124.446 262.008 111.173 267.607 124.446Z" fill="#EB5A2F" transform="matrix(1 0 0 1.00075 338 46.2138)"/><path d="M504.522 241.391 504.522 239.663" stroke="#87D1F5" stroke-width="1.52079" stroke-linejoin="round" fill="none" transform="matrix(1 0 0 1.00075 338 46.2138)"/><path d="M504.522 236.293 504.522 123.599" stroke="#87D1F5" stroke-width="1.52079" stroke-linejoin="round" stroke-dasharray="3.36993 3.36993" fill="none" transform="matrix(1 0 0 1.00075 338 46.2138)"/><path d="M504.522 121.922 504.522 120.194" stroke="#87D1F5" stroke-width="1.52079" stroke-linejoin="round" fill="none" transform="matrix(1 0 0 1.00075 338 46.2138)"/><path d="M510.121 124.446 504.522 122.061 498.923 124.446 504.522 111.173 510.121 124.446Z" fill="#87D1F5" transform="matrix(1 0 0 1.00075 338 46.2138)"/><path d="M375.981 241.391 375.981 239.663" stroke="#D0C4E2" stroke-width="1.52079" stroke-linejoin="round" fill="none" transform="matrix(1 0 0 1.00075 338 46.2138)"/><path d="M375.981 236.293 375.981 123.599" stroke="#D0C4E2" stroke-width="1.52079" stroke-linejoin="round" stroke-dasharray="3.36993 3.36993" fill="none" transform="matrix(1 0 0 1.00075 338 46.2138)"/><path d="M375.981 121.922 375.981 120.194" stroke="#D0C4E2" stroke-width="1.52079" stroke-linejoin="round" fill="none" transform="matrix(1 0 0 1.00075 338 46.2138)"/><path d="M381.58 124.446 375.981 122.061 370.382 124.446 375.981 111.173 381.58 124.446Z" fill="#D0C4E2" transform="matrix(1 0 0 1.00075 338 46.2138)"/><g><g clip-path="url(#clip9)"><path d="M379.005 610.217C378.608 610.208 378.219 610.317 377.882 610.528 377.778 610.321 377.778 610.217 377.674 610.01 378.49 609.73 379.029 608.954 379.005 608.091 379.005 606.965 378.093 606.052 376.966 606.052 376.981 605.879 376.945 605.705 376.862 605.551 376.862 605.344 376.966 605.24 376.966 605.05 376.966 603.93 376.064 603.019 374.944 603.01 374.227 603.014 373.565 603.403 373.216 604.03L372.905 604.03C371.792 604.039 370.891 604.939 370.883 606.052 370.898 606.901 371.413 607.659 372.196 607.988 372.009 608.364 371.909 608.777 371.902 609.197 373.245 610.563 374.598 611.916 375.964 613.259 376.352 613.264 376.734 613.164 377.07 612.965 377.362 613.775 378.143 614.306 379.005 614.278 380.127 614.175 380.951 613.181 380.847 612.061 380.757 611.083 379.983 610.307 379.005 610.217Z" fill="#E74B1C" transform="matrix(1 0 0 1.00075 95.866 -414.603)"/><path d="M397.272 606.156C397.263 605.036 396.352 604.134 395.233 604.134L394.939 604.134C394.59 603.507 393.928 603.118 393.211 603.114 392.091 603.114 391.18 604.016 391.171 605.136 391.156 605.316 391.192 605.496 391.275 605.655 391.275 605.862 391.171 605.948 391.171 606.156 390.052 606.164 389.149 607.075 389.149 608.195 389.163 609.04 389.68 609.795 390.463 610.113 390.338 610.257 390.271 610.442 390.273 610.632 389.97 610.345 389.564 610.196 389.149 610.217 388.028 610.321 387.204 611.314 387.307 612.434 387.397 613.412 388.171 614.188 389.149 614.278 389.998 614.263 390.757 613.748 391.085 612.965 391.42 613.164 391.802 613.264 392.191 613.259 393.556 611.916 394.909 610.563 396.252 609.197 396.261 608.807 396.152 608.421 395.941 608.091 396.733 607.772 397.258 607.01 397.272 606.156Z" fill="#E74B1C" transform="matrix(1 0 0 1.00075 95.866 -414.603)"/><path d="M141.935 159.89 136.854 155.829 136.854 147.707 147.015 147.707 147.015 155.829 141.935 159.89 141.935 159.89Z" fill="#F4981D" transform="matrix(1 0 0 1.00075 338 46.2138)"/><path d="M389.149 614.278 389.149 614.278C388.125 616.131 386.186 617.292 384.069 617.32L384.069 627.464 400.313 627.464C400.313 616.3 389.149 614.278 389.149 614.278Z" fill="#E9473A" transform="matrix(1 0 0 1.00075 95.866 -414.603)"/><path d="M384.069 617.32C381.957 617.29 380.023 616.129 379.005 614.278 379.005 614.278 367.841 616.3 367.841 627.464L384.069 627.464 384.069 617.32Z" fill="#39A3DC" transform="matrix(1 0 0 1.00075 95.866 -414.603)"/><path d="M395.233 604.134C395.129 605.255 394.135 606.08 393.014 605.976 392.037 605.886 391.261 605.112 391.171 604.134 391.068 603.012 391.894 602.019 393.014 601.915 394.135 601.813 395.129 602.637 395.233 603.759 395.245 603.883 395.245 604.009 395.233 604.134Z" fill="#F7A52D" transform="matrix(1 0 0 1.00075 95.866 -414.603)"/><path d="M376.966 604.134C376.862 605.255 375.868 606.08 374.747 605.976 373.77 605.886 372.995 605.112 372.905 604.134 372.801 603.012 373.627 602.019 374.747 601.915 375.868 601.813 376.862 602.637 376.966 603.759 376.978 603.883 376.978 604.009 376.966 604.134Z" fill="#F7A52D" transform="matrix(1 0 0 1.00075 95.866 -414.603)"/><path d="M393.211 598.033C393.211 590.326 374.944 592.97 374.944 598.033L374.944 605.136C374.724 610.181 378.635 614.448 383.68 614.667 388.724 614.887 392.991 610.976 393.211 605.931 393.223 605.667 393.223 605.401 393.211 605.136L393.211 598.033Z" fill="#FAB651" transform="matrix(1 0 0 1.00075 95.866 -414.603)"/><path d="M389.149 604.134C389.149 604.697 388.693 605.154 388.13 605.154 387.566 605.154 387.11 604.697 387.11 604.134 387.11 603.57 387.566 603.114 388.13 603.114 388.683 603.104 389.139 603.546 389.149 604.099 389.149 604.111 389.149 604.122 389.149 604.134Z" fill="#794919" transform="matrix(1 0 0 1.00075 95.866 -414.603)"/><path d="M381.027 604.134C381.027 604.697 380.571 605.154 380.007 605.154 379.444 605.154 378.988 604.697 378.988 604.134 378.988 603.57 379.444 603.114 380.007 603.114 380.013 603.114 380.02 603.114 380.025 603.114 380.578 603.114 381.027 603.564 381.027 604.117 381.027 604.122 381.027 604.129 381.027 604.134Z" fill="#794919" transform="matrix(1 0 0 1.00075 95.866 -414.603)"/><path d="M388.13 607.677C386.402 607.677 385.589 609.197 384.069 609.197 382.548 609.197 381.545 607.677 380.025 607.677 379.19 607.694 378.514 608.363 378.487 609.197 378.487 610.321 381.234 613.259 384.069 613.259 386.903 613.259 389.651 610.321 389.651 609.197 389.632 608.364 388.963 607.696 388.13 607.677Z" fill="#FFFFFF" transform="matrix(1 0 0 1.00075 95.866 -414.603)"/><path d="M397.98 597.031C398.189 596.732 398.298 596.376 398.291 596.011 398.291 594.885 397.379 593.972 396.252 593.972 396.25 593.179 395.774 592.464 395.042 592.158 393.556 591.332 392.243 590.229 391.171 588.909L390.878 588.909C390.529 588.281 389.867 587.893 389.149 587.889 388.754 587.884 388.363 587.991 388.026 588.2 387.665 587.153 386.524 586.596 385.477 586.958 385.121 587.08 384.807 587.301 384.57 587.595 384.183 587.158 383.633 586.895 383.049 586.869 382.432 587.282 381.627 587.282 381.01 586.869 380.293 586.873 379.631 587.262 379.282 587.889L378.988 587.889C378.139 587.905 377.381 588.42 377.052 589.202 376.717 589.004 376.335 588.904 375.946 588.909 374.826 588.909 373.916 589.811 373.907 590.931 373.9 591.295 374.009 591.651 374.218 591.95L373.907 591.95C372.794 591.959 371.894 592.859 371.885 593.972 371.873 594.335 371.977 594.691 372.179 594.992L371.885 594.992C370.758 594.992 369.846 595.904 369.846 597.031 369.873 597.612 370.127 598.158 370.554 598.552 370.124 598.944 369.87 599.492 369.846 600.073 369.873 600.653 370.127 601.199 370.554 601.593 370.124 601.986 369.87 602.534 369.846 603.114 369.949 604.236 370.943 605.06 372.065 604.958 373.041 604.867 373.817 604.092 373.907 603.114L373.907 602.803C374.211 603 374.564 603.107 374.927 603.114 376.04 603.106 376.94 602.205 376.949 601.092 376.954 600.698 376.852 600.309 376.655 599.969 376.758 599.969 376.845 599.865 376.949 599.762 377.248 599.971 377.604 600.08 377.968 600.073 378.822 600.059 379.584 599.533 379.904 598.742 380.234 598.953 380.619 599.062 381.01 599.053 381.858 599.037 382.617 598.523 382.945 597.74 383.277 597.945 383.663 598.047 384.051 598.033 384.9 598.018 385.659 597.503 385.987 596.72 387.373 596.891 388.565 597.778 389.132 599.053 389.497 599.06 389.853 598.951 390.152 598.742L390.152 599.053C390.147 599.768 390.53 600.43 391.154 600.781L391.154 601.092C391.163 602.212 392.073 603.114 393.193 603.114 393.558 603.121 393.914 603.012 394.213 602.803L394.213 603.132C394.317 604.253 395.31 605.077 396.432 604.974 397.408 604.884 398.184 604.11 398.274 603.132 398.252 602.546 397.989 601.996 397.548 601.611 397.986 601.224 398.248 600.674 398.274 600.09 397.861 599.473 397.861 598.668 398.274 598.051 398.278 597.693 398.169 597.342 397.963 597.048Z" fill="#EB5A2F" transform="matrix(1 0 0 1.00075 95.866 -414.603)"/><path d="M386.108 606.156C386.118 607.283 385.213 608.202 384.086 608.212 382.959 608.221 382.04 607.317 382.029 606.19 382.021 605.064 382.925 604.144 384.051 604.134 384.057 604.134 384.063 604.134 384.069 604.134 385.188 604.134 386.099 605.036 386.108 606.156Z" fill="#E9473A" transform="matrix(1 0 0 1.00075 95.866 -414.603)"/><path d="M387.421 609.405C387.24 609.209 386.932 609.197 386.737 609.381 386.728 609.387 386.721 609.396 386.713 609.405 385.615 610.86 383.545 611.15 382.09 610.053 381.844 609.868 381.627 609.65 381.442 609.405 381.241 609.215 380.923 609.222 380.733 609.422 380.548 609.616 380.548 609.92 380.733 610.113 381.637 611.074 382.873 611.657 384.19 611.738 385.506 611.657 386.742 611.074 387.646 610.113 387.729 609.858 387.646 609.576 387.439 609.405Z" fill="#E9473A" transform="matrix(1 0 0 1.00075 95.866 -414.603)"/></g></g><path d="M479.982 627.896C478.408 630.205 475.758 631.544 472.966 631.439 468.006 631.439 468.472 626.254 471.566 624.353" stroke="#E74B1C" stroke-width="4.47596" fill="none" transform="matrix(1 0 0 1.00075 95.866 -414.603)"/><path d="M470.978 622.141C472.523 621.5 474.134 621.03 475.783 620.742 475.783 620.742 476.042 623.956 474.953 624.647 473.719 625.34 472.212 625.34 470.978 624.647 470.287 624.348 469.967 623.545 470.268 622.852 470.406 622.534 470.66 622.28 470.978 622.141Z" fill="#E74B1C" transform="matrix(1 0 0 1.00075 95.866 -414.603)"/><path d="M502.431 621.692 495.415 621.692 490.783 616.508C489.499 616.074 488.161 615.813 486.808 615.73 485.236 615.73 486.428 618.08 487.137 618.737L492.442 623.68C493.019 624.092 493.704 624.333 494.412 624.371L502.431 624.371C503.831 624.371 505.231 624.06 505.231 623.04 505.231 622.02 503.831 621.709 502.431 621.709Z" fill="#D84518" transform="matrix(1 0 0 1.00075 95.866 -414.603)"/><path d="M487.707 613.725 482.16 613.725 482.16 616.387C482.16 616.387 481.987 618.115 484.907 618.115 487.828 618.115 487.776 616.387 487.776 616.387L487.776 613.725Z" fill="#D84518" transform="matrix(1 0 0 1.00075 95.866 -414.603)"/><path d="M240.648 183.359 238.539 182.478 236.448 183.359 236.448 168.307 242.048 169.188 240.648 183.359 240.648 183.359Z" fill="#EB5A2F" transform="matrix(1 0 0 1.00075 338 46.2138)"/><path d="M487.707 615.557 487.707 616.387C487.707 616.387 487.707 618.115 484.838 618.115 481.97 618.115 482.09 616.387 482.09 616.387L482.09 615.54 481.97 615.54C480.673 615.177 472.983 613.725 472.983 613.725L472.983 609.301C472.983 608.42 472.482 607.573 470.875 607.573 469.267 607.573 468.784 608.454 468.766 609.301L468.766 614.365C468.766 614.883 469.578 615.488 469.855 615.609L478.582 618.305 478.582 629.659 491.215 629.659 491.215 618.149C491.215 616.421 490.749 615.747 487.759 615.557Z" fill="#EB5A2F" transform="matrix(1 0 0 1.00075 95.866 -414.603)"/><path d="M484.89 614.607C481.434 614.607 478.582 612.878 478.582 610.632 478.582 608.385 481.416 606.64 484.89 606.64 488.364 606.64 491.215 608.368 491.215 610.632 491.215 612.896 488.381 614.607 484.89 614.607" fill="#EB5A2F" transform="matrix(1 0 0 1.00075 95.866 -414.603)"/><path d="M481.192 608.039C481.71 608.299 481.192 609.301 480.103 609.301 478.352 609.17 477.039 607.644 477.17 605.893 477.172 605.848 477.177 605.803 477.182 605.758 477.787 607.383 481.071 607.988 481.192 608.039" fill="#EB5A2F" transform="matrix(1 0 0 1.00075 95.866 -414.603)"/><path d="M488.606 608.039C488.07 608.299 488.606 609.301 489.694 609.301 491.454 609.159 492.767 607.618 492.625 605.857 492.622 605.824 492.618 605.791 492.615 605.758 491.993 607.383 488.709 607.988 488.606 608.039" fill="#EB5A2F" transform="matrix(1 0 0 1.00075 95.866 -414.603)"/><path d="M247.025 181.596 245.452 180.335 243.015 180.767 247.82 171.383 251.864 173.733 247.025 181.596 247.025 181.596Z" fill="#EB5A2F" transform="matrix(1 0 0 1.00075 338 46.2138)"/><path d="M251.864 172.35 251.864 173.733 249.012 175.634 242.048 167.062 247.059 165.438 251.864 172.35 251.864 172.35Z" fill="#EB5A2F" transform="matrix(1 0 0 1.00075 338 46.2138)"/><path d="M484.89 606.588C483.01 606.52 481.169 607.134 479.706 608.316 480.241 608.316 480.95 608.316 481.14 608.316 482.588 608.233 484.004 608.758 485.046 609.768 486.174 608.601 487.745 607.972 489.366 608.039L489.867 608.039C488.438 607.003 486.706 606.469 484.942 606.519Z" fill="#37474F" transform="matrix(1 0 0 1.00075 95.866 -414.603)"/><g clip-path="url(#clip10)"><path d="M582.497 604.583 584.104 604.825C584.649 602.221 587.075 600.451 589.721 600.729L589.721 599.122C586.29 598.892 583.211 601.22 582.497 604.583Z" fill="#7B3B8F" transform="matrix(1 0 0 1.00075 95.866 -414.603)"/><path d="M564.058 599.122 564.058 600.729C566.726 600.456 569.161 602.262 569.674 604.894L571.281 604.652C570.597 601.262 567.51 598.897 564.058 599.122Z" fill="#7B3B8F" transform="matrix(1 0 0 1.00075 95.866 -414.603)"/><path d="M576.898 601.697C569.277 601.697 563.073 609.318 563.073 616.922 563.073 624.526 569.328 628 576.898 628 584.467 628 590.723 624.544 590.723 616.922 590.723 609.301 584.467 601.697 576.898 601.697Z" fill="#A66CAA" transform="matrix(1 0 0 1.00075 95.866 -414.603)"/><path d="M592.123 599.934C592.113 601.262 591.031 602.328 589.704 602.319 588.376 602.309 587.31 601.227 587.319 599.9 587.329 598.58 588.401 597.515 589.721 597.515 591.048 597.515 592.123 598.59 592.123 599.917 592.123 599.922 592.123 599.929 592.123 599.934Z" fill="#A66CAA" transform="matrix(1 0 0 1.00075 95.866 -414.603)"/><path d="M566.46 599.934C566.449 601.262 565.368 602.328 564.04 602.319 562.713 602.309 561.647 601.227 561.655 599.9 561.666 598.58 562.737 597.515 564.058 597.515 565.385 597.515 566.46 598.59 566.46 599.917 566.46 599.922 566.46 599.929 566.46 599.934Z" fill="#A66CAA" transform="matrix(1 0 0 1.00075 95.866 -414.603)"/><path d="M576.898 619.981C573.348 619.992 570.462 617.119 570.452 613.57 570.443 610.02 573.314 607.134 576.863 607.124 580.415 607.115 583.299 609.985 583.309 613.535 583.309 613.547 583.309 613.558 583.309 613.57 583.347 617.073 580.539 619.943 577.036 619.981 576.991 619.981 576.945 619.981 576.898 619.981Z" fill="#B6E1F9" transform="matrix(1 0 0 1.00075 95.866 -414.603)"/><path d="M580.095 613.501C580.095 615.275 578.655 616.715 576.881 616.715 575.106 616.715 573.666 615.275 573.666 613.501 573.666 611.726 575.106 610.286 576.881 610.286 576.886 610.286 576.893 610.286 576.898 610.286 578.664 610.286 580.095 611.717 580.095 613.483 580.095 613.488 580.095 613.495 580.095 613.501Z" fill="#4254A1" transform="matrix(1 0 0 1.00075 95.866 -414.603)"/><path d="M580.095 611.565C580.095 612.234 579.554 612.775 578.885 612.775 578.216 612.775 577.676 612.232 577.676 611.565 577.676 610.896 578.216 610.355 578.885 610.355 578.89 610.355 578.897 610.355 578.903 610.355 579.561 610.355 580.095 610.889 580.095 611.548 580.095 611.553 580.095 611.56 580.095 611.565Z" fill="#FFFFFF" transform="matrix(1 0 0 1.00075 95.866 -414.603)"/><path d="M582.393 623.991C578.925 625.81 574.784 625.81 571.316 623.991L582.393 623.991Z" fill="#613088" transform="matrix(1 0 0 1.00075 95.866 -414.603)"/></g><g clip-path="url(#clip11)"><g clip-path="url(#clip12)"><path d="M801.111 612.706 775.378 612.706 775.378 604.86C775.349 603.247 776.633 601.917 778.245 601.887 778.282 601.887 778.316 601.887 778.351 601.887L798.156 601.887C799.759 601.858 801.081 603.135 801.111 604.737 801.112 604.778 801.112 604.818 801.111 604.86L801.111 612.792Z" fill="#1A4A99" transform="matrix(1 0 0 1.00075 95.866 -414.603)"/><path d="M801.111 626.6 775.378 626.6C773.766 626.619 772.442 625.328 772.423 623.716 772.421 623.68 772.423 623.645 772.423 623.61L772.423 613.397C772.397 610.684 774.232 608.304 776.865 607.642L788.253 604.773 799.642 607.642C802.263 608.321 804.09 610.689 804.083 613.397L804.083 623.61C804.121 625.223 802.846 626.562 801.233 626.6 801.192 626.6 801.152 626.6 801.111 626.6Z" fill="#41B2E6" transform="matrix(1 0 0 1.00075 95.866 -414.603)"/><path d="M536.217 173.059 556.004 173.059 556.004 146.774 546.119 144.302 536.217 146.774 536.217 173.059 536.217 173.059Z" fill="#87D1F5" transform="matrix(1 0 0 1.00075 338 46.2138)"/><path d="M788.253 604.86 779.405 606.951C780.684 610.407 784.14 611.219 788.305 611.219 792.47 611.219 795.926 610.528 797.205 606.951L788.253 604.86Z" fill="#3B82C4" transform="matrix(1 0 0 1.00075 95.866 -414.603)"/><path d="M798.156 601.801C798.156 608.541 793.697 609.733 788.253 609.733 782.809 609.733 778.351 608.437 778.351 601.801 778.911 596.331 783.8 592.353 789.268 592.913 793.963 593.393 797.675 597.105 798.156 601.801Z" fill="#57C1EF" transform="matrix(1 0 0 1.00075 95.866 -414.603)"/><path d="M795.183 599.813C790.671 598.483 785.87 598.483 781.358 599.813L781.358 603.771C781.358 606.657 785.315 608.437 788.27 608.437 791.226 608.437 795.183 606.847 795.183 603.771L795.183 599.813Z" fill="#27333A" transform="matrix(1 0 0 1.00075 95.866 -414.603)"/><path d="M788.253 600.798C786.592 600.788 784.935 600.956 783.311 601.3L783.311 603.771" stroke="#627D8B" stroke-width="1.84914" stroke-linecap="round" stroke-miterlimit="10" fill="none" transform="matrix(1 0 0 1.00075 95.866 -414.603)"/><path d="M792.211 622.625 784.296 622.625C783.202 622.617 782.317 621.732 782.308 620.638L782.308 614.693C782.317 613.599 783.202 612.714 784.296 612.706L792.211 612.706C793.305 612.714 794.189 613.599 794.198 614.693L794.198 620.638C794.189 621.732 793.305 622.617 792.211 622.625Z" fill="#B6E1F9" transform="matrix(1 0 0 1.00075 95.866 -414.603)"/><path d="M792.211 621.64 784.296 621.64C783.781 621.67 783.34 621.277 783.309 620.762 783.307 620.721 783.307 620.679 783.311 620.638L783.311 614.693C783.271 614.18 783.656 613.73 784.171 613.692 784.213 613.689 784.254 613.689 784.296 613.691L792.211 613.691C792.726 613.661 793.166 614.054 793.197 614.569 793.199 614.61 793.199 614.651 793.196 614.693L793.196 620.638C793.235 621.151 792.85 621.6 792.335 621.638 792.294 621.642 792.252 621.642 792.211 621.64Z" fill="#1A4A99" transform="matrix(1 0 0 1.00075 95.866 -414.603)"/><path d="M530.272 157.194 536.217 157.194 536.217 159.182 530.272 159.182 530.272 157.194 530.272 157.194Z" fill="#D84518" transform="matrix(1 0 0 1.00075 338 46.2138)"/><path d="M530.272 161.152 536.217 161.152 536.217 163.139 530.272 163.139 530.272 161.152 530.272 161.152Z" fill="#D84518" transform="matrix(1 0 0 1.00075 338 46.2138)"/><path d="M556.004 157.194 561.949 157.194 561.949 159.182 556.004 159.182 556.004 157.194 556.004 157.194Z" fill="#D84518" transform="matrix(1 0 0 1.00075 338 46.2138)"/><path d="M556.004 161.152 561.949 161.152 561.949 163.139 556.004 163.139 556.004 161.152 556.004 161.152Z" fill="#D84518" transform="matrix(1 0 0 1.00075 338 46.2138)"/><path d="M545.117 166.112 547.104 166.112 547.104 174.061 545.117 174.061 545.117 166.112 545.117 166.112Z" fill="#3B82C4" transform="matrix(1 0 0 1.00075 338 46.2138)"/><path d="M786.318 636.52 780.39 636.52C779.296 636.511 778.411 635.626 778.403 634.532L778.403 633.53C781.181 630.903 785.526 630.903 788.305 633.53L788.305 634.532C788.296 635.626 787.411 636.511 786.318 636.52Z" fill="#3B82C4" transform="matrix(1 0 0 1.00075 95.866 -414.603)"/><path d="M796.168 636.52 790.223 636.52C789.133 636.511 788.253 635.623 788.253 634.532L788.253 633.53C791.032 630.903 795.377 630.903 798.156 633.53L798.156 634.532C798.147 635.626 797.262 636.511 796.168 636.52Z" fill="#3B82C4" transform="matrix(1 0 0 1.00075 95.866 -414.603)"/></g></g><g clip-path="url(#clip13)"><g clip-path="url(#clip14)"><path d="M650 627.931 643.225 627.931C641.315 627.931 639.769 626.384 639.769 624.474L639.769 619.394 653.318 619.394 653.318 624.474C653.318 626.384 651.771 627.931 649.861 627.931Z" fill="#B19DCB" transform="matrix(1 0 0 1.00075 95.866 -414.603)"/><path d="M661.008 608.454C661.008 615.471 654.579 619.463 646.612 619.463 638.645 619.463 632.217 615.471 632.217 608.454 632.217 600.503 638.661 594.059 646.612 594.059 654.562 594.059 661.008 600.503 661.008 608.454Z" fill="#D0C4E2" transform="matrix(1 0 0 1.00075 95.866 -414.603)"/><path d="M655.08 620.31 638.144 620.31C637.19 620.31 636.416 619.535 636.416 618.581L636.416 610.96 656.705 610.96 656.705 618.685C656.705 619.639 655.931 620.413 654.977 620.413Z" fill="#D0C4E2" transform="matrix(1 0 0 1.00075 95.866 -414.603)"/><path d="M650 623.697 643.225 623.697C642.271 623.697 641.497 622.922 641.497 621.969L641.497 616.957 651.659 616.957 651.659 622.038C651.659 622.992 650.884 623.766 649.93 623.766Z" fill="#D0C4E2" transform="matrix(1 0 0 1.00075 95.866 -414.603)"/><path d="M401.091 164.073 402.785 164.073 402.785 165.766 401.091 165.766 401.091 164.073 401.091 164.073Z" fill="#D0C4E2" transform="matrix(1 0 0 1.00075 338 46.2138)"/><path d="M406.172 164.073 407.866 164.073 407.866 165.766 406.172 165.766 406.172 164.073 406.172 164.073Z" fill="#D0C4E2" transform="matrix(1 0 0 1.00075 338 46.2138)"/><path d="M403.632 164.073 405.325 164.073 405.325 165.766 403.632 165.766 403.632 164.073 403.632 164.073Z" fill="#D0C4E2" transform="matrix(1 0 0 1.00075 338 46.2138)"/><path d="M646.612 615.229C645.766 615.384 644.504 617.51 644.504 618.685 644.537 619.138 644.898 619.499 645.351 619.532 646.025 619.532 646.439 618.841 646.612 618.426 646.732 619.046 647.26 619.502 647.891 619.532 648.339 619.551 648.719 619.203 648.738 618.756 648.74 618.732 648.74 618.709 648.738 618.685 648.738 617.579 647.459 615.453 646.612 615.229Z" fill="#504684" transform="matrix(1 0 0 1.00075 95.866 -414.603)"/><path d="M655.08 613.501C655.08 615.41 653.534 616.957 651.624 616.957 649.714 616.957 648.168 615.41 648.168 613.501 648.168 611.591 649.714 610.044 651.624 610.044 653.534 610.044 655.08 611.591 655.08 613.501Z" fill="#504684" transform="matrix(1 0 0 1.00075 95.866 -414.603)"/><path d="M644.919 613.501C644.919 615.41 643.372 616.957 641.462 616.957 639.553 616.957 638.006 615.41 638.006 613.501 638.006 611.591 639.553 610.044 641.462 610.044 643.372 610.044 644.919 611.591 644.919 613.501Z" fill="#504684" transform="matrix(1 0 0 1.00075 95.866 -414.603)"/><path d="M401.091 161.532 402.785 161.532 402.785 163.208 401.091 163.208 401.091 161.532 401.091 161.532Z" fill="#EEE7F4" transform="matrix(1 0 0 1.00075 338 46.2138)"/><path d="M406.172 161.532 407.866 161.532 407.866 163.208 406.172 163.208 406.172 161.532 406.172 161.532Z" fill="#EEE7F4" transform="matrix(1 0 0 1.00075 338 46.2138)"/><path d="M403.632 161.532 405.325 161.532 405.325 163.208 403.632 163.208 403.632 161.532 403.632 161.532Z" fill="#EEE7F4" transform="matrix(1 0 0 1.00075 338 46.2138)"/></g></g></g></g></g><g clip-path="url(#clip15)"><g clip-path="url(#clip16)"><g clip-path="url(#clip17)"><path d="M293.951 564.951 419.172 564.951C441.021 564.279 463.73 567.137 484.598 561.645 497.011 557.203 506.085 548.904 516.105 541.828 530.602 529.948 540.864 532.944 554.896 543.154 584.372 571.338 610.559 564.072 651.02 564.951L773.813 564.951" stroke="#009741" stroke-width="1.51512" stroke-linejoin="round" fill="none" transform="matrix(1.00442 0 0 1 93.7508 -413.306)"/><text fill="#009741" font-family="HelveticaNeueLT Pro 55 Roman,HelveticaNeueLT Pro 55 Roman_MSFontService,sans-serif" font-weight="400" font-size="9" transform="matrix(1.72933 0 0 1.72173 647.829 123)">SE</text></g></g></g><g><g><g><path d="M268.134 693.256C320.839 691.549 236.651 699.044 287.017 684.498 316.929 672.734 338.8 650.744 362.993 631.998 397.941 600.498 422.749 608.437 456.52 635.498 527.561 710.244 590.732 690.951 688.39 693.256" stroke="#39A3DC" stroke-width="1.70732" stroke-miterlimit="10" fill="none" transform="matrix(1.00979 0 0 1 99.545 -406.724)"/><path d="M310.578 693.256C363.3 691.549 330.315 699.044 380.681 684.498 410.593 672.734 432.48 650.744 456.673 631.998 491.605 600.498 516.429 608.437 550.2 635.498 621.293 710.193 684.481 690.951 782.054 693.256" stroke="#EB5A2F" stroke-width="1.70732" stroke-miterlimit="10" fill="none" transform="matrix(1.00979 0 0 1 99.545 -406.724)"/><path d="M423.176 693.256C475.881 691.549 442.912 699.044 493.261 684.498 523.19 672.734 545.061 650.744 569.254 631.998 604.202 600.498 629.01 608.437 662.781 635.498 733.873 710.244 797.061 690.951 894.634 693.256" stroke="#D0C4E2" stroke-width="1.70732" stroke-miterlimit="10" fill="none" transform="matrix(1.00979 0 0 1 99.545 -406.724)"/><path d="M550.166 693.256C602.871 691.549 569.902 699.044 620.268 684.498 650.181 672.734 672.051 650.744 696.244 631.998 731.193 600.498 756 608.437 789.771 635.498 860.863 710.244 824.634 690.951 922.139 693.256" stroke="#87D1F5" stroke-width="1.70732" stroke-miterlimit="10" fill="none" transform="matrix(1.00979 0 0 1 99.545 -406.724)"/></g></g></g><g><g><g><path d="M0 0.439525 398 0.439525" stroke="#010101" stroke-width="0.87905" stroke-linejoin="round" fill="none" transform="matrix(1.73116 0 0 1 333 287.06)"/></g></g></g><g clip-path="url(#clip18)"><g><g><path d="M687.455 138.724 0 138.724" stroke="#010101" stroke-width="1.52008" stroke-linejoin="round" fill="none" transform="matrix(1.00079 0 0 1 323 366.089)"/><path d="M720.775 933.275C670.682 935.089 690.512 927.316 642.699 942.275 614.301 954.366 593.538 977.029 570.564 996.324 537.399 1028.73 513.907 1020.51 481.778 992.714 414.29 915.846 377.152 935.711 284.531 933.275" stroke="#010101" stroke-width="1.52008" stroke-linejoin="round" fill="none" transform="matrix(1.00079 0 0 1 90.3475 -428.324)"/><path d="M724.731 932.878 625.511 932.878C608.238 933.551 590.204 930.632 573.691 936.333 563.862 940.858 556.676 949.322 548.73 956.543 537.243 968.634 529.107 965.611 518.001 955.195 494.647 926.435 473.884 933.845 441.824 932.964L344.522 932.964" stroke="#009741" stroke-width="1.52008" stroke-linejoin="round" fill="none" transform="matrix(1.00079 0 0 1 90.3475 -428.324)"/><path d="M302.754 138.724 302.754 140.452" stroke="#010101" stroke-width="1.52008" stroke-linejoin="round" fill="none" transform="matrix(1.00079 0 0 1 323 366.089)"/><path d="M302.754 143.82 302.754 243.42" stroke="#010101" stroke-width="1.52008" stroke-linejoin="round" stroke-dasharray="3.36835 3.36835" fill="none" transform="matrix(1.00079 0 0 1 323 366.089)"/><path d="M302.754 245.095 302.754 246.822" stroke="#010101" stroke-width="1.52008" stroke-linejoin="round" fill="none" transform="matrix(1.00079 0 0 1 323 366.089)"/><path d="M22.5248 0.760038 276.758 1.77918 687.455 1.77918" stroke="#010101" stroke-width="1.52008" stroke-linejoin="round" fill="none" transform="matrix(1.00079 0 0 1 323 366.089)"/><path d="M806.85 795.95C732.78 797.781 851.087 789.991 780.317 804.967 738.291 817.058 707.544 839.704 673.567 858.999 624.475 891.421 589.686 883.182 542.149 855.388 442.273 778.521 379.397 798.386 242.297 795.967" stroke="#6C2E2C" stroke-width="1.72736" stroke-miterlimit="10" fill="none" transform="matrix(1.00079 0 0 1 90.3475 -428.324)"/><path d="M387.568 1.39916 387.568 3.12652" stroke="#6C2E2C" stroke-width="1.52008" stroke-linejoin="round" fill="none" transform="matrix(1.00079 0 0 1 323 366.089)"/><path d="M387.568 6.56397 387.568 121.347" stroke="#6C2E2C" stroke-width="1.52008" stroke-linejoin="round" stroke-dasharray="3.42017 3.42017" fill="none" transform="matrix(1.00079 0 0 1 323 366.089)"/><path d="M387.568 123.057 387.568 124.784" stroke="#6C2E2C" stroke-width="1.52008" stroke-linejoin="round" fill="none" transform="matrix(1.00079 0 0 1 323 366.089)"/><path d="M381.971 120.535 387.568 122.919 393.147 120.535 387.568 133.801 381.971 120.535Z" fill="#6C2E2C" transform="matrix(1.00079 0 0 1 323 366.089)"/><path d="M887.483 795.95C804.051 797.781 908.073 789.991 828.373 804.967 781.008 817.058 746.392 839.704 708.096 858.999 652.821 891.421 613.627 883.182 560.079 855.388 447.542 778.521 397.707 798.386 243.195 795.967" stroke="#0856A3" stroke-width="1.72736" stroke-miterlimit="10" fill="none" transform="matrix(1.00079 0 0 1 90.3475 -428.324)"/><path d="M404.219 1.39916 404.219 3.12652" stroke="#0856A3" stroke-width="1.52008" stroke-linejoin="round" fill="none" transform="matrix(1.00079 0 0 1 323 366.089)"/><path d="M404.219 6.56397 404.219 121.347" stroke="#0856A3" stroke-width="1.52008" stroke-linejoin="round" stroke-dasharray="3.42017 3.42017" fill="none" transform="matrix(1.00079 0 0 1 323 366.089)"/><path d="M404.219 123.057 404.219 124.784" stroke="#0856A3" stroke-width="1.52008" stroke-linejoin="round" fill="none" transform="matrix(1.00079 0 0 1 323 366.089)"/><path d="M398.623 120.535 404.219 122.919 409.816 120.535 404.219 133.801 398.623 120.535Z" fill="#0856A3" transform="matrix(1.00079 0 0 1 323 366.089)"/><path d="M878.604 795.95C804.172 797.781 902.563 789.991 831.465 804.967 789.213 817.058 758.328 839.704 724.178 858.999 674.845 891.421 639.9 883.182 592.122 855.388 491.745 778.521 402.527 798.386 264.752 795.967" stroke="#E52625" stroke-width="1.72736" stroke-miterlimit="10" fill="none" transform="matrix(1.00079 0 0 1 90.3475 -428.324)"/><path d="M430.717 1.39916 430.717 3.12652" stroke="#E52625" stroke-width="1.52008" stroke-linejoin="round" fill="none" transform="matrix(1.00079 0 0 1 323 366.089)"/><path d="M430.717 6.56397 430.717 121.347" stroke="#E52625" stroke-width="1.52008" stroke-linejoin="round" stroke-dasharray="3.42017 3.42017" fill="none" transform="matrix(1.00079 0 0 1 323 366.089)"/><path d="M430.717 123.057 430.717 124.784" stroke="#E52625" stroke-width="1.52008" stroke-linejoin="round" fill="none" transform="matrix(1.00079 0 0 1 323 366.089)"/><path d="M425.12 120.535 430.717 122.919 436.314 120.535 430.717 133.801 425.12 120.535Z" fill="#E52625" transform="matrix(1.00079 0 0 1 323 366.089)"/><path d="M790.267 795.95C708.891 797.781 759.796 789.991 682.048 804.967 635.858 817.058 602.088 839.704 564.743 858.999 510.797 891.421 472.588 883.182 420.353 855.388 358.013 811.721 305.173 799.249 243.558 796.192" stroke="#D6B52B" stroke-width="1.72736" stroke-miterlimit="10" fill="none" transform="matrix(1.00079 0 0 1 90.3475 -428.324)"/><path d="M214.659 1.39916 214.659 3.12652" stroke="#6EB52F" stroke-width="1.52008" stroke-linejoin="round" fill="none" transform="matrix(1.00079 0 0 1 323 366.089)"/><path d="M214.659 6.56397 214.659 121.347" stroke="#6EB52F" stroke-width="1.52008" stroke-linejoin="round" stroke-dasharray="3.42017 3.42017" fill="none" transform="matrix(1.00079 0 0 1 323 366.089)"/><path d="M214.659 123.057 214.659 124.784" stroke="#6EB52F" stroke-width="1.52008" stroke-linejoin="round" fill="none" transform="matrix(1.00079 0 0 1 323 366.089)"/><path d="M209.062 120.535 214.659 122.919 220.256 120.535 214.659 133.801 209.062 120.535Z" fill="#6EB52F" transform="matrix(1.00079 0 0 1 323 366.089)"/><path d="M738.343 795.95C657.623 797.781 708.114 789.991 631.004 804.967 585.178 817.058 551.684 839.704 514.632 858.999 461.084 891.421 423.22 883.182 371.4 855.388 280.471 791.182 316.331 794.43 243.575 795.864" stroke="#6EB52F" stroke-width="1.72736" stroke-miterlimit="10" fill="none" transform="matrix(1.00079 0 0 1 90.3475 -428.324)"/><path d="M271.195 1.39916 271.195 3.12652" stroke="#D6B52B" stroke-width="1.52008" stroke-linejoin="round" fill="none" transform="matrix(1.00079 0 0 1 323 366.089)"/><path d="M271.195 6.56397 271.195 121.347" stroke="#D6B52B" stroke-width="1.52008" stroke-linejoin="round" stroke-dasharray="3.42017 3.42017" fill="none" transform="matrix(1.00079 0 0 1 323 366.089)"/><path d="M271.195 123.057 271.195 124.784" stroke="#D6B52B" stroke-width="1.52008" stroke-linejoin="round" fill="none" transform="matrix(1.00079 0 0 1 323 366.089)"/><path d="M265.599 120.535 271.195 122.919 276.792 120.535 271.195 133.801 265.599 120.535Z" fill="#D6B52B" transform="matrix(1.00079 0 0 1 323 366.089)"/><text fill="#009741" font-family="HelveticaNeueLT Pro 55 Roman,HelveticaNeueLT Pro 55 Roman_MSFontService,sans-serif" font-weight="400" font-size="10" transform="matrix(1.72873 0 0 1.72736 663.646 526)">SE</text><path d="M403.943 851.139C398.968 858.81 392.99 865.78 386.168 871.867 379.881 877.516 368.377 875.581 368.377 883.734L368.377 886.706C368.377 889.659 371.33 892.475 371.33 895.584L371.33 898.555C371.33 903.012 369.845 903.012 368.377 907.451L371.382 907.451 377.324 898.555 377.324 907.451 380.278 907.451 380.278 892.63C380.278 890.989 381.608 889.659 383.249 889.659 384.89 889.659 386.22 890.989 386.22 892.63L386.22 907.451 389.174 907.451 389.174 894.116 392.111 898.572 395.064 907.468 398.035 907.468 393.492 888.847C395.22 887.776 395.064 885.807 395.064 883.665L395.064 874.769 406.931 858.463 411.198 859.776C412.079 860.052 412.925 859.949 412.925 859.206 412.925 857.72 411.958 857.479 411.44 856.978Z" fill="#6EB52F" transform="matrix(1.00079 0 0 1 90.3475 -428.324)"/><path d="M682.842 893.701 681.115 892.527C684.883 891.388 688.764 890.67 692.688 890.385 695.711 890.385 698.32 889.538 697.318 887.776 696.316 886.015 696.316 881.109 700.341 881.368 701.875 881.347 703.179 882.487 703.364 884.011 703.364 884.011 703.139 884.978 706.818 885.738 706.818 885.738 707.44 886.118 706.317 886.619 706.317 886.619 700.773 886.239 701.291 887.621 701.291 887.621 701.153 888.83 703.018 889.538 706.196 890.765 709.375 900.939 696.109 899.902 692.846 899.693 689.662 898.806 686.764 897.294 684.601 896.285 682.386 895.392 680.131 894.617Z" fill="#0856A3" transform="matrix(1.00079 0 0 1 90.3475 -428.324)"/><path d="M507.516 891.801C507.201 891.281 507.039 890.682 507.049 890.074 506.887 888.403 508.094 886.913 509.761 886.723 510.129 886.712 510.495 886.759 510.849 886.861 513.325 883.734 517.04 881.843 521.023 881.679 526.102 881.679 531.388 883.786 531.388 891.11 531.517 894.13 529.897 896.954 527.225 898.365 526.7 898.526 526.356 899.027 526.396 899.574 526.408 900.279 526.459 900.982 526.551 901.682 526.551 902.044 527.156 902.252 527.518 902.77 527.846 903.159 528.062 903.632 528.14 904.135 528.14 904.532 528.14 904.653 527.846 904.273 527.387 903.469 526.542 902.965 525.618 902.943 525.338 902.896 525.057 903.001 524.875 903.219 524.552 903.587 524.2 903.929 523.822 904.238 523.43 904.459 523.093 904.765 522.837 905.136 522.613 905.465 522.492 905.655 522.492 905.136 522.468 904.623 522.654 904.124 523.01 903.755 523.511 903.115 523.822 902.735 523.908 902.649 523.089 902.785 522.298 903.048 521.559 903.426 521.231 903.634 521.162 903.565 521.438 903.184 521.78 902.701 522.272 902.343 522.837 902.165 523.457 901.944 524.1 901.794 524.755 901.716 524.979 901.716 525.204 901.405 525.255 900.887 525.368 900.206 525.368 899.512 525.255 898.831 525.135 898.555 524.34 898.417 523.632 896.88 523.124 897.158 522.585 897.372 522.025 897.519 521.749 897.519 521.68 898.521 521.645 899.246 521.637 899.899 521.678 900.552 521.766 901.198 521.766 901.474 521.853 901.613 521.542 901.768 520.695 902.183 520.73 902.442 520.229 902.96 519.946 903.228 519.723 903.551 519.573 903.91 519.452 904.169 519.4 904.014 519.4 903.772 519.391 903.295 519.491 902.822 519.693 902.39 519.161 902.64 518.614 902.855 518.052 903.029 517.543 903.084 517.035 903.165 516.532 903.271 516.066 903.444 516.049 903.478 515.807 903.582 515.565 903.685 515.669 903.461 515.962 903.184 516.491 902.808 517.073 902.511 517.69 902.304 518.127 902.167 518.545 901.975 518.933 901.734 518.603 901.509 518.208 901.405 517.811 901.44L516.981 901.44C516.757 901.44 516.722 901.44 517.102 901.146 517.646 900.913 518.241 900.82 518.83 900.87L519.97 900.87C520.212 900.87 520.436 900.645 520.523 900.075 520.63 899.291 520.687 898.5 520.695 897.709 519.289 897.026 518.47 895.529 518.657 893.978 518.263 892.971 517.266 892.33 516.187 892.388 514.857 892.388 514.287 893.529 511.333 892.544 510.647 892.352 509.913 892.575 509.45 893.114 507.88 894.693 506.733 896.641 506.116 898.78 505.978 899.668 505.74 900.536 505.408 901.371 505.166 901.371 505.218 900.283 505.304 899.643 505.686 896.942 506.431 894.304 507.516 891.801Z" fill="#D6B52B" transform="matrix(1.00079 0 0 1 90.3475 -428.324)"/><path d="M600.016 868.706C600.275 868.914 599.446 871.28 600.897 870.952 600.396 872.386 599.066 872.42 598.893 873.854 598.634 875.996 600.931 877.62 602.019 879.036 601.415 881.264 598.392 881.472 596.837 879.934 595.334 880.262 593.953 879.796 592.812 880.383 590.049 881.817 591.258 886.999 590.135 890.437 589.099 893.58 587.026 894.168 586.335 896.24 586.767 898.175 586.214 899.885 586.56 901.423 586.905 902.96 588.667 903.824 588.563 905.447 588.2 905.776 587.44 905.24 586.56 905.447 586.179 904.371 585.592 903.38 584.832 902.528 584.948 901.039 584.872 899.541 584.608 898.071 582.759 900.472 584.193 904.463 585.955 905.896 582.777 907.019 581.74 903.012 582.604 900.075 581.671 898.538 580.324 897.432 580.6 894.72 578.717 894.392 576.938 895.394 575.003 895.601 569.821 896.206 564.242 894.979 559.595 894.496 558.576 896.646 558.262 899.065 558.697 901.405 559.112 903.703 561.495 905.205 562.048 906.76 556.711 907.745 557.954 900.766 555.139 898.728 555.419 897.101 555.569 895.455 555.588 893.805 554.655 895.757 552.41 898.262 552.237 900.956 552.116 902.977 553.411 904.221 553.964 906.138L551.511 906.138C551.126 904.988 550.974 903.772 551.062 902.563 551.062 900.611 550.043 898.106 550.181 896.534 550.319 894.962 551.65 893.874 551.736 892.509 551.56 890.811 551.104 889.153 550.389 887.604 550.148 886.021 549.452 884.544 548.385 883.354 547.901 890.177 549.698 896.81 548.834 902.563 547.107 901.941 547.711 899.557 547.711 898.106 547.711 894.962 547.711 892.198 547.487 888.934 547.245 884.149 546.001 879.226 547.487 876.428 554.655 874.044 563.914 876.203 573.639 875.754 577.973 875.752 582.3 875.457 586.594 874.873 587.976 874.545 589.064 873.336 590.619 873.75 590.619 872.628 589.444 871.747 590.17 870.624 591.292 870.624 591.897 871.349 592.847 871.522 594.212 870.416 594.695 868.447 597.528 868.827 597.114 869.674 595.3 869.121 595.524 870.555 597.148 870.9 599.567 870.209 600.016 868.706Z" fill="#6C2E2C" transform="matrix(1.00079 0 0 1 90.3475 -428.324)"/><path d="M756.307 890.385C755.789 888.882 755.305 888.07 754.942 886.792 754.856 886.55 752.835 880.919 743.956 875.754 742.488 874.908 736.822 873.267 735.527 872.783 735.287 872.653 735.066 872.489 734.871 872.299 733.99 871.574 732.711 869.656 731.519 868.965 730.279 868.23 728.868 867.831 727.426 867.808 725.855 867.651 724.27 867.839 722.779 868.361 721.646 868.712 720.774 869.617 720.464 870.762L720.361 871.505C720.658 871.812 720.829 872.218 720.844 872.645 720.844 873.042 720.585 873.457 720.585 874.009 720.627 875.144 721.171 876.201 722.071 876.894 723.563 877.915 725.154 878.784 726.821 879.485L726.907 879.485C727.837 880.209 728.047 881.53 727.391 882.508L718.357 878.656C716.168 877.191 713.208 877.777 711.743 879.965 711.7 880.029 711.66 880.093 711.62 880.159 711.527 880.292 711.439 880.43 711.361 880.573 711.28 880.674 711.28 880.819 711.361 880.919 711.454 881.014 711.608 881.016 711.703 880.922 711.705 880.921 711.705 880.921 711.707 880.919 712.866 879.603 714.8 879.305 716.301 880.211L716.509 880.349C716.716 881.161 716.509 880.953 716.992 882.646 717.227 883.315 717.633 883.909 718.167 884.374L725.94 891.68C727.433 892.786 729.383 893.059 731.122 892.406 731.848 892.129 733.506 891.335 735.112 890.782 735.43 890.627 735.814 890.73 736.011 891.024L737.6 892.665C737.824 892.872 737.838 893.221 737.631 893.446 737.621 893.456 737.61 893.466 737.6 893.477L733.195 898.469 733.195 898.469C732.055 899.597 731.701 901.298 732.297 902.787 732.492 903.402 732.836 903.96 733.299 904.411 733.378 904.482 733.496 904.482 733.575 904.411 733.575 904.411 733.575 904.186 733.575 904.1 732.824 902.64 733.399 900.849 734.857 900.099 734.884 900.086 734.912 900.072 734.94 900.058L736.961 901.215C737.736 901.554 738.609 901.597 739.414 901.336L747.48 899.229C752.559 897.778 753.388 894.686 754.683 893.114L754.683 893.114C755.392 893.252 755.754 893.287 756.186 892.924 757.067 892.285 756.583 891.145 756.307 890.385ZM725.94 873.733C726.638 874.07 727.412 874.218 728.186 874.165 727.887 874.858 727.338 875.412 726.648 875.719 725.826 876.096 724.924 876.262 724.023 876.203 723.283 876.177 722.596 875.814 722.157 875.219 721.888 874.788 721.717 874.305 721.656 873.802 721.974 873.759 722.283 873.666 722.572 873.526 723.09 873.284 723.245 872.299 723.228 871.798 722.655 871.722 722.074 871.722 721.501 871.798 721.535 871.235 721.903 870.746 722.434 870.555 723.194 870.365 723.194 870.779 724.057 870.779L724.265 870.779C724.46 870.769 724.652 870.729 724.835 870.658 725.329 870.439 725.868 870.339 726.406 870.365 727.401 870.242 728.345 870.843 728.652 871.798 727.509 871.634 726.348 871.605 725.197 871.712 725.18 872.403 725.042 873.215 725.94 873.733Z" fill="#E52625" transform="matrix(1.00079 0 0 1 90.3475 -428.324)"/></g></g></g></g></svg>