<svg width="1280" height="720" xmlns="http://www.w3.org/2000/svg" xmlns:xlink="http://www.w3.org/1999/xlink" overflow="hidden"><defs><clipPath id="clip0"><path d="M454.565 217.604 504.492 217.604 504.492 167.64 454.565 167.64 454.565 217.604 454.565 217.604Z"/></clipPath><clipPath id="clip1"><path d="M652.7 218.037 692.154 218.037 692.154 178.553 652.7 178.553 652.7 218.037 652.7 218.037Z"/></clipPath><clipPath id="clip2"><path d="M859.372 176.72 908.054 176.72 908.054 225.56 859.372 225.56 859.372 176.72 859.372 176.72Z" fill-rule="evenodd" clip-rule="evenodd"/></clipPath><clipPath id="clip3"><path d="M859.372 225.56 908.054 225.56 908.054 176.72 859.372 176.72 859.372 225.56 859.372 225.56Z"/></clipPath><clipPath id="clip4"><path d="M721.308 176.512 762.957 176.512 762.957 218.192 721.308 218.192 721.308 176.512 721.308 176.512Z" fill-rule="evenodd" clip-rule="evenodd"/></clipPath><clipPath id="clip5"><path d="M721.308 218.192 762.957 218.192 762.957 176.512 721.308 176.512 721.308 218.192 721.308 218.192Z"/></clipPath><clipPath id="clip6"><rect x="389" y="110" width="482" height="43"/></clipPath><clipPath id="clip7"><rect x="389" y="110" width="482" height="43"/></clipPath><clipPath id="clip8"><rect x="389" y="110" width="482" height="43"/></clipPath></defs><g><rect x="0" y="0" width="1280" height="720" fill="#FFFFFF"/><g><g><g><path d="M0 106.334 664.983 106.334" stroke="#010101" stroke-width="1.52079" stroke-linejoin="round" fill="none" transform="matrix(1 0 0 1.00075 338 46.2138)"/><path d="M247.025 566.667C322.736 564.939 292.821 572.526 365.162 557.802 408.142 545.895 439.474 523.636 474.314 504.66 524.431 472.776 560.048 480.812 608.644 508.203 710.762 583.811 766.962 564.334 907.117 566.667" stroke="#010101" stroke-width="1.52079" stroke-linejoin="round" fill="none" transform="matrix(1 0 0 1.00075 95.866 -414.603)"/><path d="M293.201 106.334 293.201 104.606" stroke="#010101" stroke-width="1.52079" stroke-linejoin="round" fill="none" transform="matrix(1 0 0 1.00075 338 46.2138)"/><path d="M293.201 101.046 293.201 3.50819" stroke="#010101" stroke-width="1.52079" stroke-linejoin="round" stroke-dasharray="3.54275 3.54275" fill="none" transform="matrix(1 0 0 1.00075 338 46.2138)"/><path d="M293.201 1.72817 293.201 0" stroke="#010101" stroke-width="1.52079" stroke-linejoin="round" fill="none" transform="matrix(1 0 0 1.00075 338 46.2138)"/><path d="M167.201 241.391 167.201 239.663" stroke="#39A3DC" stroke-width="1.52079" stroke-linejoin="round" fill="none" transform="matrix(1 0 0 1.00075 338 46.2138)"/><path d="M167.201 236.293 167.201 123.599" stroke="#39A3DC" stroke-width="1.52079" stroke-linejoin="round" stroke-dasharray="3.36993 3.36993" fill="none" transform="matrix(1 0 0 1.00075 338 46.2138)"/><path d="M167.201 121.922 167.201 120.194" stroke="#39A3DC" stroke-width="1.52079" stroke-linejoin="round" fill="none" transform="matrix(1 0 0 1.00075 338 46.2138)"/><path d="M172.8 124.446 167.201 122.061 161.601 124.446 167.201 111.173 172.8 124.446Z" fill="#39A3DC" transform="matrix(1 0 0 1.00075 338 46.2138)"/><path d="M307.597 241.391 307.597 239.663" stroke="#A66CAA" stroke-width="1.52079" stroke-linejoin="round" fill="none" transform="matrix(1 0 0 1.00075 338 46.2138)"/><path d="M307.597 236.293 307.597 123.599" stroke="#A66CAA" stroke-width="1.52079" stroke-linejoin="round" stroke-dasharray="3.36993 3.36993" fill="none" transform="matrix(1 0 0 1.00075 338 46.2138)"/><path d="M307.597 121.922 307.597 120.194" stroke="#A66CAA" stroke-width="1.52079" stroke-linejoin="round" fill="none" transform="matrix(1 0 0 1.00075 338 46.2138)"/><path d="M313.196 124.446 307.597 122.061 301.998 124.446 307.597 111.173 313.196 124.446Z" fill="#A66CAA" transform="matrix(1 0 0 1.00075 338 46.2138)"/><path d="M262.008 241.391 262.008 239.663" stroke="#EB5A2F" stroke-width="1.52079" stroke-linejoin="round" fill="none" transform="matrix(1 0 0 1.00075 338 46.2138)"/><path d="M262.008 236.293 262.008 123.599" stroke="#EB5A2F" stroke-width="1.52079" stroke-linejoin="round" stroke-dasharray="3.36993 3.36993" fill="none" transform="matrix(1 0 0 1.00075 338 46.2138)"/><path d="M262.008 121.922 262.008 120.194" stroke="#EB5A2F" stroke-width="1.52079" stroke-linejoin="round" fill="none" transform="matrix(1 0 0 1.00075 338 46.2138)"/><path d="M267.607 124.446 262.008 122.061 256.409 124.446 262.008 111.173 267.607 124.446Z" fill="#EB5A2F" transform="matrix(1 0 0 1.00075 338 46.2138)"/><path d="M504.522 241.391 504.522 239.663" stroke="#87D1F5" stroke-width="1.52079" stroke-linejoin="round" fill="none" transform="matrix(1 0 0 1.00075 338 46.2138)"/><path d="M504.522 236.293 504.522 123.599" stroke="#87D1F5" stroke-width="1.52079" stroke-linejoin="round" stroke-dasharray="3.36993 3.36993" fill="none" transform="matrix(1 0 0 1.00075 338 46.2138)"/><path d="M504.522 121.922 504.522 120.194" stroke="#87D1F5" stroke-width="1.52079" stroke-linejoin="round" fill="none" transform="matrix(1 0 0 1.00075 338 46.2138)"/><path d="M510.121 124.446 504.522 122.061 498.923 124.446 504.522 111.173 510.121 124.446Z" fill="#87D1F5" transform="matrix(1 0 0 1.00075 338 46.2138)"/><path d="M375.981 241.391 375.981 239.663" stroke="#D0C4E2" stroke-width="1.52079" stroke-linejoin="round" fill="none" transform="matrix(1 0 0 1.00075 338 46.2138)"/><path d="M375.981 236.293 375.981 123.599" stroke="#D0C4E2" stroke-width="1.52079" stroke-linejoin="round" stroke-dasharray="3.36993 3.36993" fill="none" transform="matrix(1 0 0 1.00075 338 46.2138)"/><path d="M375.981 121.922 375.981 120.194" stroke="#D0C4E2" stroke-width="1.52079" stroke-linejoin="round" fill="none" transform="matrix(1 0 0 1.00075 338 46.2138)"/><path d="M381.58 124.446 375.981 122.061 370.382 124.446 375.981 111.173 381.58 124.446Z" fill="#D0C4E2" transform="matrix(1 0 0 1.00075 338 46.2138)"/><g><g clip-path="url(#clip0)"><path d="M379.005 610.217C378.608 610.208 378.219 610.317 377.882 610.528 377.778 610.321 377.778 610.217 377.674 610.01 378.49 609.73 379.029 608.954 379.005 608.091 379.005 606.965 378.093 606.052 376.966 606.052 376.981 605.879 376.945 605.705 376.862 605.551 376.862 605.344 376.966 605.24 376.966 605.05 376.966 603.93 376.064 603.019 374.944 603.01 374.227 603.014 373.565 603.403 373.216 604.03L372.905 604.03C371.792 604.039 370.891 604.939 370.883 606.052 370.898 606.901 371.413 607.659 372.196 607.988 372.009 608.364 371.909 608.777 371.902 609.197 373.245 610.563 374.598 611.916 375.964 613.259 376.352 613.264 376.734 613.164 377.07 612.965 377.362 613.775 378.143 614.306 379.005 614.278 380.127 614.175 380.951 613.181 380.847 612.061 380.757 611.083 379.983 610.307 379.005 610.217Z" fill="#E74B1C" transform="matrix(1 0 0 1.00075 95.866 -414.603)"/><path d="M397.272 606.156C397.263 605.036 396.352 604.134 395.233 604.134L394.939 604.134C394.59 603.507 393.928 603.118 393.211 603.114 392.091 603.114 391.18 604.016 391.171 605.136 391.156 605.316 391.192 605.496 391.275 605.655 391.275 605.862 391.171 605.948 391.171 606.156 390.052 606.164 389.149 607.075 389.149 608.195 389.163 609.04 389.68 609.795 390.463 610.113 390.338 610.257 390.271 610.442 390.273 610.632 389.97 610.345 389.564 610.196 389.149 610.217 388.028 610.321 387.204 611.314 387.307 612.434 387.397 613.412 388.171 614.188 389.149 614.278 389.998 614.263 390.757 613.748 391.085 612.965 391.42 613.164 391.802 613.264 392.191 613.259 393.556 611.916 394.909 610.563 396.252 609.197 396.261 608.807 396.152 608.421 395.941 608.091 396.733 607.772 397.258 607.01 397.272 606.156Z" fill="#E74B1C" transform="matrix(1 0 0 1.00075 95.866 -414.603)"/><path d="M141.935 159.89 136.854 155.829 136.854 147.707 147.015 147.707 147.015 155.829 141.935 159.89 141.935 159.89Z" fill="#F4981D" transform="matrix(1 0 0 1.00075 338 46.2138)"/><path d="M389.149 614.278 389.149 614.278C388.125 616.131 386.186 617.292 384.069 617.32L384.069 627.464 400.313 627.464C400.313 616.3 389.149 614.278 389.149 614.278Z" fill="#E9473A" transform="matrix(1 0 0 1.00075 95.866 -414.603)"/><path d="M384.069 617.32C381.957 617.29 380.023 616.129 379.005 614.278 379.005 614.278 367.841 616.3 367.841 627.464L384.069 627.464 384.069 617.32Z" fill="#39A3DC" transform="matrix(1 0 0 1.00075 95.866 -414.603)"/><path d="M395.233 604.134C395.129 605.255 394.135 606.08 393.014 605.976 392.037 605.886 391.261 605.112 391.171 604.134 391.068 603.012 391.894 602.019 393.014 601.915 394.135 601.813 395.129 602.637 395.233 603.759 395.245 603.883 395.245 604.009 395.233 604.134Z" fill="#F7A52D" transform="matrix(1 0 0 1.00075 95.866 -414.603)"/><path d="M376.966 604.134C376.862 605.255 375.868 606.08 374.747 605.976 373.77 605.886 372.995 605.112 372.905 604.134 372.801 603.012 373.627 602.019 374.747 601.915 375.868 601.813 376.862 602.637 376.966 603.759 376.978 603.883 376.978 604.009 376.966 604.134Z" fill="#F7A52D" transform="matrix(1 0 0 1.00075 95.866 -414.603)"/><path d="M393.211 598.033C393.211 590.326 374.944 592.97 374.944 598.033L374.944 605.136C374.724 610.181 378.635 614.448 383.68 614.667 388.724 614.887 392.991 610.976 393.211 605.931 393.223 605.667 393.223 605.401 393.211 605.136L393.211 598.033Z" fill="#FAB651" transform="matrix(1 0 0 1.00075 95.866 -414.603)"/><path d="M389.149 604.134C389.149 604.697 388.693 605.154 388.13 605.154 387.566 605.154 387.11 604.697 387.11 604.134 387.11 603.57 387.566 603.114 388.13 603.114 388.683 603.104 389.139 603.546 389.149 604.099 389.149 604.111 389.149 604.122 389.149 604.134Z" fill="#794919" transform="matrix(1 0 0 1.00075 95.866 -414.603)"/><path d="M381.027 604.134C381.027 604.697 380.571 605.154 380.007 605.154 379.444 605.154 378.988 604.697 378.988 604.134 378.988 603.57 379.444 603.114 380.007 603.114 380.013 603.114 380.02 603.114 380.025 603.114 380.578 603.114 381.027 603.564 381.027 604.117 381.027 604.122 381.027 604.129 381.027 604.134Z" fill="#794919" transform="matrix(1 0 0 1.00075 95.866 -414.603)"/><path d="M388.13 607.677C386.402 607.677 385.589 609.197 384.069 609.197 382.548 609.197 381.545 607.677 380.025 607.677 379.19 607.694 378.514 608.363 378.487 609.197 378.487 610.321 381.234 613.259 384.069 613.259 386.903 613.259 389.651 610.321 389.651 609.197 389.632 608.364 388.963 607.696 388.13 607.677Z" fill="#FFFFFF" transform="matrix(1 0 0 1.00075 95.866 -414.603)"/><path d="M397.98 597.031C398.189 596.732 398.298 596.376 398.291 596.011 398.291 594.885 397.379 593.972 396.252 593.972 396.25 593.179 395.774 592.464 395.042 592.158 393.556 591.332 392.243 590.229 391.171 588.909L390.878 588.909C390.529 588.281 389.867 587.893 389.149 587.889 388.754 587.884 388.363 587.991 388.026 588.2 387.665 587.153 386.524 586.596 385.477 586.958 385.121 587.08 384.807 587.301 384.57 587.595 384.183 587.158 383.633 586.895 383.049 586.869 382.432 587.282 381.627 587.282 381.01 586.869 380.293 586.873 379.631 587.262 379.282 587.889L378.988 587.889C378.139 587.905 377.381 588.42 377.052 589.202 376.717 589.004 376.335 588.904 375.946 588.909 374.826 588.909 373.916 589.811 373.907 590.931 373.9 591.295 374.009 591.651 374.218 591.95L373.907 591.95C372.794 591.959 371.894 592.859 371.885 593.972 371.873 594.335 371.977 594.691 372.179 594.992L371.885 594.992C370.758 594.992 369.846 595.904 369.846 597.031 369.873 597.612 370.127 598.158 370.554 598.552 370.124 598.944 369.87 599.492 369.846 600.073 369.873 600.653 370.127 601.199 370.554 601.593 370.124 601.986 369.87 602.534 369.846 603.114 369.949 604.236 370.943 605.06 372.065 604.958 373.041 604.867 373.817 604.092 373.907 603.114L373.907 602.803C374.211 603 374.564 603.107 374.927 603.114 376.04 603.106 376.94 602.205 376.949 601.092 376.954 600.698 376.852 600.309 376.655 599.969 376.758 599.969 376.845 599.865 376.949 599.762 377.248 599.971 377.604 600.08 377.968 600.073 378.822 600.059 379.584 599.533 379.904 598.742 380.234 598.953 380.619 599.062 381.01 599.053 381.858 599.037 382.617 598.523 382.945 597.74 383.277 597.945 383.663 598.047 384.051 598.033 384.9 598.018 385.659 597.503 385.987 596.72 387.373 596.891 388.565 597.778 389.132 599.053 389.497 599.06 389.853 598.951 390.152 598.742L390.152 599.053C390.147 599.768 390.53 600.43 391.154 600.781L391.154 601.092C391.163 602.212 392.073 603.114 393.193 603.114 393.558 603.121 393.914 603.012 394.213 602.803L394.213 603.132C394.317 604.253 395.31 605.077 396.432 604.974 397.408 604.884 398.184 604.11 398.274 603.132 398.252 602.546 397.989 601.996 397.548 601.611 397.986 601.224 398.248 600.674 398.274 600.09 397.861 599.473 397.861 598.668 398.274 598.051 398.278 597.693 398.169 597.342 397.963 597.048Z" fill="#EB5A2F" transform="matrix(1 0 0 1.00075 95.866 -414.603)"/><path d="M386.108 606.156C386.118 607.283 385.213 608.202 384.086 608.212 382.959 608.221 382.04 607.317 382.029 606.19 382.021 605.064 382.925 604.144 384.051 604.134 384.057 604.134 384.063 604.134 384.069 604.134 385.188 604.134 386.099 605.036 386.108 606.156Z" fill="#E9473A" transform="matrix(1 0 0 1.00075 95.866 -414.603)"/><path d="M387.421 609.405C387.24 609.209 386.932 609.197 386.737 609.381 386.728 609.387 386.721 609.396 386.713 609.405 385.615 610.86 383.545 611.15 382.09 610.053 381.844 609.868 381.627 609.65 381.442 609.405 381.241 609.215 380.923 609.222 380.733 609.422 380.548 609.616 380.548 609.92 380.733 610.113 381.637 611.074 382.873 611.657 384.19 611.738 385.506 611.657 386.742 611.074 387.646 610.113 387.729 609.858 387.646 609.576 387.439 609.405Z" fill="#E9473A" transform="matrix(1 0 0 1.00075 95.866 -414.603)"/></g></g><path d="M479.982 627.896C478.408 630.205 475.758 631.544 472.966 631.439 468.006 631.439 468.472 626.254 471.566 624.353" stroke="#E74B1C" stroke-width="4.47596" fill="none" transform="matrix(1 0 0 1.00075 95.866 -414.603)"/><path d="M470.978 622.141C472.523 621.5 474.134 621.03 475.783 620.742 475.783 620.742 476.042 623.956 474.953 624.647 473.719 625.34 472.212 625.34 470.978 624.647 470.287 624.348 469.967 623.545 470.268 622.852 470.406 622.534 470.66 622.28 470.978 622.141Z" fill="#E74B1C" transform="matrix(1 0 0 1.00075 95.866 -414.603)"/><path d="M502.431 621.692 495.415 621.692 490.783 616.508C489.499 616.074 488.161 615.813 486.808 615.73 485.236 615.73 486.428 618.08 487.137 618.737L492.442 623.68C493.019 624.092 493.704 624.333 494.412 624.371L502.431 624.371C503.831 624.371 505.231 624.06 505.231 623.04 505.231 622.02 503.831 621.709 502.431 621.709Z" fill="#D84518" transform="matrix(1 0 0 1.00075 95.866 -414.603)"/><path d="M487.707 613.725 482.16 613.725 482.16 616.387C482.16 616.387 481.987 618.115 484.907 618.115 487.828 618.115 487.776 616.387 487.776 616.387L487.776 613.725Z" fill="#D84518" transform="matrix(1 0 0 1.00075 95.866 -414.603)"/><path d="M240.648 183.359 238.539 182.478 236.448 183.359 236.448 168.307 242.048 169.188 240.648 183.359 240.648 183.359Z" fill="#EB5A2F" transform="matrix(1 0 0 1.00075 338 46.2138)"/><path d="M487.707 615.557 487.707 616.387C487.707 616.387 487.707 618.115 484.838 618.115 481.97 618.115 482.09 616.387 482.09 616.387L482.09 615.54 481.97 615.54C480.673 615.177 472.983 613.725 472.983 613.725L472.983 609.301C472.983 608.42 472.482 607.573 470.875 607.573 469.267 607.573 468.784 608.454 468.766 609.301L468.766 614.365C468.766 614.883 469.578 615.488 469.855 615.609L478.582 618.305 478.582 629.659 491.215 629.659 491.215 618.149C491.215 616.421 490.749 615.747 487.759 615.557Z" fill="#EB5A2F" transform="matrix(1 0 0 1.00075 95.866 -414.603)"/><path d="M484.89 614.607C481.434 614.607 478.582 612.878 478.582 610.632 478.582 608.385 481.416 606.64 484.89 606.64 488.364 606.64 491.215 608.368 491.215 610.632 491.215 612.896 488.381 614.607 484.89 614.607" fill="#EB5A2F" transform="matrix(1 0 0 1.00075 95.866 -414.603)"/><path d="M481.192 608.039C481.71 608.299 481.192 609.301 480.103 609.301 478.352 609.17 477.039 607.644 477.17 605.893 477.172 605.848 477.177 605.803 477.182 605.758 477.787 607.383 481.071 607.988 481.192 608.039" fill="#EB5A2F" transform="matrix(1 0 0 1.00075 95.866 -414.603)"/><path d="M488.606 608.039C488.07 608.299 488.606 609.301 489.694 609.301 491.454 609.159 492.767 607.618 492.625 605.857 492.622 605.824 492.618 605.791 492.615 605.758 491.993 607.383 488.709 607.988 488.606 608.039" fill="#EB5A2F" transform="matrix(1 0 0 1.00075 95.866 -414.603)"/><path d="M247.025 181.596 245.452 180.335 243.015 180.767 247.82 171.383 251.864 173.733 247.025 181.596 247.025 181.596Z" fill="#EB5A2F" transform="matrix(1 0 0 1.00075 338 46.2138)"/><path d="M251.864 172.35 251.864 173.733 249.012 175.634 242.048 167.062 247.059 165.438 251.864 172.35 251.864 172.35Z" fill="#EB5A2F" transform="matrix(1 0 0 1.00075 338 46.2138)"/><path d="M484.89 606.588C483.01 606.52 481.169 607.134 479.706 608.316 480.241 608.316 480.95 608.316 481.14 608.316 482.588 608.233 484.004 608.758 485.046 609.768 486.174 608.601 487.745 607.972 489.366 608.039L489.867 608.039C488.438 607.003 486.706 606.469 484.942 606.519Z" fill="#37474F" transform="matrix(1 0 0 1.00075 95.866 -414.603)"/><g clip-path="url(#clip1)"><path d="M582.497 604.583 584.104 604.825C584.649 602.221 587.075 600.451 589.721 600.729L589.721 599.122C586.29 598.892 583.211 601.22 582.497 604.583Z" fill="#7B3B8F" transform="matrix(1 0 0 1.00075 95.866 -414.603)"/><path d="M564.058 599.122 564.058 600.729C566.726 600.456 569.161 602.262 569.674 604.894L571.281 604.652C570.597 601.262 567.51 598.897 564.058 599.122Z" fill="#7B3B8F" transform="matrix(1 0 0 1.00075 95.866 -414.603)"/><path d="M576.898 601.697C569.277 601.697 563.073 609.318 563.073 616.922 563.073 624.526 569.328 628 576.898 628 584.467 628 590.723 624.544 590.723 616.922 590.723 609.301 584.467 601.697 576.898 601.697Z" fill="#A66CAA" transform="matrix(1 0 0 1.00075 95.866 -414.603)"/><path d="M592.123 599.934C592.113 601.262 591.031 602.328 589.704 602.319 588.376 602.309 587.31 601.227 587.319 599.9 587.329 598.58 588.401 597.515 589.721 597.515 591.048 597.515 592.123 598.59 592.123 599.917 592.123 599.922 592.123 599.929 592.123 599.934Z" fill="#A66CAA" transform="matrix(1 0 0 1.00075 95.866 -414.603)"/><path d="M566.46 599.934C566.449 601.262 565.368 602.328 564.04 602.319 562.713 602.309 561.647 601.227 561.655 599.9 561.666 598.58 562.737 597.515 564.058 597.515 565.385 597.515 566.46 598.59 566.46 599.917 566.46 599.922 566.46 599.929 566.46 599.934Z" fill="#A66CAA" transform="matrix(1 0 0 1.00075 95.866 -414.603)"/><path d="M576.898 619.981C573.348 619.992 570.462 617.119 570.452 613.57 570.443 610.02 573.314 607.134 576.863 607.124 580.415 607.115 583.299 609.985 583.309 613.535 583.309 613.547 583.309 613.558 583.309 613.57 583.347 617.073 580.539 619.943 577.036 619.981 576.991 619.981 576.945 619.981 576.898 619.981Z" fill="#B6E1F9" transform="matrix(1 0 0 1.00075 95.866 -414.603)"/><path d="M580.095 613.501C580.095 615.275 578.655 616.715 576.881 616.715 575.106 616.715 573.666 615.275 573.666 613.501 573.666 611.726 575.106 610.286 576.881 610.286 576.886 610.286 576.893 610.286 576.898 610.286 578.664 610.286 580.095 611.717 580.095 613.483 580.095 613.488 580.095 613.495 580.095 613.501Z" fill="#4254A1" transform="matrix(1 0 0 1.00075 95.866 -414.603)"/><path d="M580.095 611.565C580.095 612.234 579.554 612.775 578.885 612.775 578.216 612.775 577.676 612.232 577.676 611.565 577.676 610.896 578.216 610.355 578.885 610.355 578.89 610.355 578.897 610.355 578.903 610.355 579.561 610.355 580.095 610.889 580.095 611.548 580.095 611.553 580.095 611.56 580.095 611.565Z" fill="#FFFFFF" transform="matrix(1 0 0 1.00075 95.866 -414.603)"/><path d="M582.393 623.991C578.925 625.81 574.784 625.81 571.316 623.991L582.393 623.991Z" fill="#613088" transform="matrix(1 0 0 1.00075 95.866 -414.603)"/></g><g clip-path="url(#clip2)"><g clip-path="url(#clip3)"><path d="M801.111 612.706 775.378 612.706 775.378 604.86C775.349 603.247 776.633 601.917 778.245 601.887 778.282 601.887 778.316 601.887 778.351 601.887L798.156 601.887C799.759 601.858 801.081 603.135 801.111 604.737 801.112 604.778 801.112 604.818 801.111 604.86L801.111 612.792Z" fill="#1A4A99" transform="matrix(1 0 0 1.00075 95.866 -414.603)"/><path d="M801.111 626.6 775.378 626.6C773.766 626.619 772.442 625.328 772.423 623.716 772.421 623.68 772.423 623.645 772.423 623.61L772.423 613.397C772.397 610.684 774.232 608.304 776.865 607.642L788.253 604.773 799.642 607.642C802.263 608.321 804.09 610.689 804.083 613.397L804.083 623.61C804.121 625.223 802.846 626.562 801.233 626.6 801.192 626.6 801.152 626.6 801.111 626.6Z" fill="#41B2E6" transform="matrix(1 0 0 1.00075 95.866 -414.603)"/><path d="M536.217 173.059 556.004 173.059 556.004 146.774 546.119 144.302 536.217 146.774 536.217 173.059 536.217 173.059Z" fill="#87D1F5" transform="matrix(1 0 0 1.00075 338 46.2138)"/><path d="M788.253 604.86 779.405 606.951C780.684 610.407 784.14 611.219 788.305 611.219 792.47 611.219 795.926 610.528 797.205 606.951L788.253 604.86Z" fill="#3B82C4" transform="matrix(1 0 0 1.00075 95.866 -414.603)"/><path d="M798.156 601.801C798.156 608.541 793.697 609.733 788.253 609.733 782.809 609.733 778.351 608.437 778.351 601.801 778.911 596.331 783.8 592.353 789.268 592.913 793.963 593.393 797.675 597.105 798.156 601.801Z" fill="#57C1EF" transform="matrix(1 0 0 1.00075 95.866 -414.603)"/><path d="M795.183 599.813C790.671 598.483 785.87 598.483 781.358 599.813L781.358 603.771C781.358 606.657 785.315 608.437 788.27 608.437 791.226 608.437 795.183 606.847 795.183 603.771L795.183 599.813Z" fill="#27333A" transform="matrix(1 0 0 1.00075 95.866 -414.603)"/><path d="M788.253 600.798C786.592 600.788 784.935 600.956 783.311 601.3L783.311 603.771" stroke="#627D8B" stroke-width="1.84914" stroke-linecap="round" stroke-miterlimit="10" fill="none" transform="matrix(1 0 0 1.00075 95.866 -414.603)"/><path d="M792.211 622.625 784.296 622.625C783.202 622.617 782.317 621.732 782.308 620.638L782.308 614.693C782.317 613.599 783.202 612.714 784.296 612.706L792.211 612.706C793.305 612.714 794.189 613.599 794.198 614.693L794.198 620.638C794.189 621.732 793.305 622.617 792.211 622.625Z" fill="#B6E1F9" transform="matrix(1 0 0 1.00075 95.866 -414.603)"/><path d="M792.211 621.64 784.296 621.64C783.781 621.67 783.34 621.277 783.309 620.762 783.307 620.721 783.307 620.679 783.311 620.638L783.311 614.693C783.271 614.18 783.656 613.73 784.171 613.692 784.213 613.689 784.254 613.689 784.296 613.691L792.211 613.691C792.726 613.661 793.166 614.054 793.197 614.569 793.199 614.61 793.199 614.651 793.196 614.693L793.196 620.638C793.235 621.151 792.85 621.6 792.335 621.638 792.294 621.642 792.252 621.642 792.211 621.64Z" fill="#1A4A99" transform="matrix(1 0 0 1.00075 95.866 -414.603)"/><path d="M530.272 157.194 536.217 157.194 536.217 159.182 530.272 159.182 530.272 157.194 530.272 157.194Z" fill="#D84518" transform="matrix(1 0 0 1.00075 338 46.2138)"/><path d="M530.272 161.152 536.217 161.152 536.217 163.139 530.272 163.139 530.272 161.152 530.272 161.152Z" fill="#D84518" transform="matrix(1 0 0 1.00075 338 46.2138)"/><path d="M556.004 157.194 561.949 157.194 561.949 159.182 556.004 159.182 556.004 157.194 556.004 157.194Z" fill="#D84518" transform="matrix(1 0 0 1.00075 338 46.2138)"/><path d="M556.004 161.152 561.949 161.152 561.949 163.139 556.004 163.139 556.004 161.152 556.004 161.152Z" fill="#D84518" transform="matrix(1 0 0 1.00075 338 46.2138)"/><path d="M545.117 166.112 547.104 166.112 547.104 174.061 545.117 174.061 545.117 166.112 545.117 166.112Z" fill="#3B82C4" transform="matrix(1 0 0 1.00075 338 46.2138)"/><path d="M786.318 636.52 780.39 636.52C779.296 636.511 778.411 635.626 778.403 634.532L778.403 633.53C781.181 630.903 785.526 630.903 788.305 633.53L788.305 634.532C788.296 635.626 787.411 636.511 786.318 636.52Z" fill="#3B82C4" transform="matrix(1 0 0 1.00075 95.866 -414.603)"/><path d="M796.168 636.52 790.223 636.52C789.133 636.511 788.253 635.623 788.253 634.532L788.253 633.53C791.032 630.903 795.377 630.903 798.156 633.53L798.156 634.532C798.147 635.626 797.262 636.511 796.168 636.52Z" fill="#3B82C4" transform="matrix(1 0 0 1.00075 95.866 -414.603)"/></g></g><g clip-path="url(#clip4)"><g clip-path="url(#clip5)"><path d="M650 627.931 643.225 627.931C641.315 627.931 639.769 626.384 639.769 624.474L639.769 619.394 653.318 619.394 653.318 624.474C653.318 626.384 651.771 627.931 649.861 627.931Z" fill="#B19DCB" transform="matrix(1 0 0 1.00075 95.866 -414.603)"/><path d="M661.008 608.454C661.008 615.471 654.579 619.463 646.612 619.463 638.645 619.463 632.217 615.471 632.217 608.454 632.217 600.503 638.661 594.059 646.612 594.059 654.562 594.059 661.008 600.503 661.008 608.454Z" fill="#D0C4E2" transform="matrix(1 0 0 1.00075 95.866 -414.603)"/><path d="M655.08 620.31 638.144 620.31C637.19 620.31 636.416 619.535 636.416 618.581L636.416 610.96 656.705 610.96 656.705 618.685C656.705 619.639 655.931 620.413 654.977 620.413Z" fill="#D0C4E2" transform="matrix(1 0 0 1.00075 95.866 -414.603)"/><path d="M650 623.697 643.225 623.697C642.271 623.697 641.497 622.922 641.497 621.969L641.497 616.957 651.659 616.957 651.659 622.038C651.659 622.992 650.884 623.766 649.93 623.766Z" fill="#D0C4E2" transform="matrix(1 0 0 1.00075 95.866 -414.603)"/><path d="M401.091 164.073 402.785 164.073 402.785 165.766 401.091 165.766 401.091 164.073 401.091 164.073Z" fill="#D0C4E2" transform="matrix(1 0 0 1.00075 338 46.2138)"/><path d="M406.172 164.073 407.866 164.073 407.866 165.766 406.172 165.766 406.172 164.073 406.172 164.073Z" fill="#D0C4E2" transform="matrix(1 0 0 1.00075 338 46.2138)"/><path d="M403.632 164.073 405.325 164.073 405.325 165.766 403.632 165.766 403.632 164.073 403.632 164.073Z" fill="#D0C4E2" transform="matrix(1 0 0 1.00075 338 46.2138)"/><path d="M646.612 615.229C645.766 615.384 644.504 617.51 644.504 618.685 644.537 619.138 644.898 619.499 645.351 619.532 646.025 619.532 646.439 618.841 646.612 618.426 646.732 619.046 647.26 619.502 647.891 619.532 648.339 619.551 648.719 619.203 648.738 618.756 648.74 618.732 648.74 618.709 648.738 618.685 648.738 617.579 647.459 615.453 646.612 615.229Z" fill="#504684" transform="matrix(1 0 0 1.00075 95.866 -414.603)"/><path d="M655.08 613.501C655.08 615.41 653.534 616.957 651.624 616.957 649.714 616.957 648.168 615.41 648.168 613.501 648.168 611.591 649.714 610.044 651.624 610.044 653.534 610.044 655.08 611.591 655.08 613.501Z" fill="#504684" transform="matrix(1 0 0 1.00075 95.866 -414.603)"/><path d="M644.919 613.501C644.919 615.41 643.372 616.957 641.462 616.957 639.553 616.957 638.006 615.41 638.006 613.501 638.006 611.591 639.553 610.044 641.462 610.044 643.372 610.044 644.919 611.591 644.919 613.501Z" fill="#504684" transform="matrix(1 0 0 1.00075 95.866 -414.603)"/><path d="M401.091 161.532 402.785 161.532 402.785 163.208 401.091 163.208 401.091 161.532 401.091 161.532Z" fill="#EEE7F4" transform="matrix(1 0 0 1.00075 338 46.2138)"/><path d="M406.172 161.532 407.866 161.532 407.866 163.208 406.172 163.208 406.172 161.532 406.172 161.532Z" fill="#EEE7F4" transform="matrix(1 0 0 1.00075 338 46.2138)"/><path d="M403.632 161.532 405.325 161.532 405.325 163.208 403.632 163.208 403.632 161.532 403.632 161.532Z" fill="#EEE7F4" transform="matrix(1 0 0 1.00075 338 46.2138)"/></g></g></g></g></g><g clip-path="url(#clip6)"><g clip-path="url(#clip7)"><g clip-path="url(#clip8)"><path d="M293.951 564.951 419.172 564.951C441.021 564.279 463.73 567.137 484.598 561.645 497.011 557.203 506.085 548.904 516.105 541.828 530.602 529.948 540.864 532.944 554.896 543.154 584.372 571.338 610.559 564.072 651.02 564.951L773.813 564.951" stroke="#009741" stroke-width="1.51512" stroke-linejoin="round" fill="none" transform="matrix(1.00442 0 0 1 93.7508 -413.306)"/><text fill="#009741" font-family="HelveticaNeueLT Pro 55 Roman,HelveticaNeueLT Pro 55 Roman_MSFontService,sans-serif" font-weight="400" font-size="9" transform="matrix(1.72933 0 0 1.72173 647.829 123)">SE</text></g></g></g><g><g><g><path d="M0 0.439525 398 0.439525" stroke="#010101" stroke-width="0.87905" stroke-linejoin="round" fill="none" transform="matrix(1.73116 0 0 1 333 287.06)"/></g></g></g></g></svg>